M48
; DRILL file {KiCad (5.1.7)-1} date 12/17/20 22:24:42
; FORMAT={-:-/ absolute / metric / decimal}
; #@! TF.CreationDate,2020-12-17T22:24:42+01:00
; #@! TF.GenerationSoftware,Kicad,Pcbnew,(5.1.7)-1
FMAT,2
METRIC
T1C0.400
T2C1.000
%
G90
G05
T1
X40.132Y-50.292
X56.388Y-26.924
T2
X28.702Y-36.576
X28.702Y-51.816
X31.242Y-36.576
X31.242Y-51.816
X33.782Y-36.576
X33.782Y-51.816
X36.322Y-36.576
X36.322Y-51.816
X38.862Y-36.576
X38.862Y-51.816
X41.402Y-36.576
X41.402Y-51.816
X43.942Y-36.576
X43.942Y-51.816
X46.482Y-36.576
X46.482Y-51.816
X49.022Y-36.576
X49.022Y-51.816
X51.562Y-36.576
X51.562Y-51.816
X54.102Y-36.576
X54.102Y-51.816
X56.642Y-36.576
X56.642Y-51.816
X59.182Y-36.576
X59.182Y-51.816
X61.722Y-36.576
X61.722Y-51.816
X64.262Y-36.576
X64.262Y-51.816
X26.924Y-55.626
X29.464Y-55.626
X27.178Y-29.591
X27.178Y-32.131
X29.718Y-29.591
X29.718Y-32.131
X32.258Y-29.591
X32.258Y-32.131
X34.798Y-29.591
X34.798Y-32.131
X37.338Y-29.591
X37.338Y-32.131
X39.878Y-29.591
X39.878Y-32.131
X42.418Y-29.591
X42.418Y-32.131
X44.958Y-29.591
X44.958Y-32.131
X47.498Y-29.591
X47.498Y-32.131
X50.038Y-29.591
X50.038Y-32.131
X52.578Y-29.591
X52.578Y-32.131
X55.118Y-29.591
X55.118Y-32.131
X57.658Y-29.591
X57.658Y-32.131
X34.671Y-55.626
X37.211Y-55.626
X63.627Y-32.639
X66.167Y-32.639
X27.178Y-22.86
X27.178Y-25.4
X29.718Y-22.86
X29.718Y-25.4
X32.258Y-22.86
X32.258Y-25.4
X34.798Y-22.86
X34.798Y-25.4
X37.338Y-22.86
X37.338Y-25.4
X39.878Y-22.86
X39.878Y-25.4
X42.418Y-22.86
X42.418Y-25.4
X44.958Y-22.86
X44.958Y-25.4
X47.498Y-22.86
X47.498Y-25.4
X50.038Y-22.86
X50.038Y-25.4
X52.578Y-22.86
X52.578Y-25.4
X55.118Y-22.86
X55.118Y-25.4
X57.658Y-22.86
X57.658Y-25.4
X63.627Y-27.559
X66.167Y-27.559
X68.707Y-27.559
X71.247Y-27.559
X42.291Y-55.626
X44.831Y-55.626
X63.627Y-22.352
X66.167Y-22.352
X68.707Y-22.352
X71.247Y-22.352
T0
M30
