%TF.GenerationSoftware,KiCad,Pcbnew,(5.1.7)-1*%
%TF.CreationDate,2020-12-17T22:24:39+01:00*%
%TF.ProjectId,u64_rgb_led,7536345f-7267-4625-9f6c-65642e6b6963,rev?*%
%TF.SameCoordinates,Original*%
%TF.FileFunction,Copper,L2,Bot*%
%TF.FilePolarity,Positive*%
%FSLAX46Y46*%
G04 Gerber Fmt 4.6, Leading zero omitted, Abs format (unit mm)*
G04 Created by KiCad (PCBNEW (5.1.7)-1) date 2020-12-17 22:24:39*
%MOMM*%
%LPD*%
G01*
G04 APERTURE LIST*
%TA.AperFunction,ComponentPad*%
%ADD10R,1.600000X1.600000*%
%TD*%
%TA.AperFunction,ComponentPad*%
%ADD11O,1.600000X1.600000*%
%TD*%
%TA.AperFunction,ComponentPad*%
%ADD12R,1.700000X1.700000*%
%TD*%
%TA.AperFunction,ComponentPad*%
%ADD13O,1.700000X1.700000*%
%TD*%
%TA.AperFunction,ViaPad*%
%ADD14C,0.800000*%
%TD*%
%TA.AperFunction,Conductor*%
%ADD15C,0.250000*%
%TD*%
%TA.AperFunction,Conductor*%
%ADD16C,0.500000*%
%TD*%
%TA.AperFunction,Conductor*%
%ADD17C,0.254000*%
%TD*%
%TA.AperFunction,Conductor*%
%ADD18C,0.100000*%
%TD*%
G04 APERTURE END LIST*
D10*
X28702000Y-51816000D03*
D11*
X61722000Y-36576000D03*
X31242000Y-51816000D03*
X59182000Y-36576000D03*
X33782000Y-51816000D03*
X56642000Y-36576000D03*
X36322000Y-51816000D03*
X54102000Y-36576000D03*
X38862000Y-51816000D03*
X51562000Y-36576000D03*
X41402000Y-51816000D03*
X49022000Y-36576000D03*
X43942000Y-51816000D03*
X46482000Y-36576000D03*
X46482000Y-51816000D03*
X43942000Y-36576000D03*
X49022000Y-51816000D03*
X41402000Y-36576000D03*
X51562000Y-51816000D03*
X38862000Y-36576000D03*
X54102000Y-51816000D03*
X36322000Y-36576000D03*
X56642000Y-51816000D03*
X33782000Y-36576000D03*
X59182000Y-51816000D03*
X31242000Y-36576000D03*
X61722000Y-51816000D03*
X28702000Y-36576000D03*
X64262000Y-51816000D03*
X64262000Y-36576000D03*
D12*
X57658000Y-22860000D03*
D13*
X57658000Y-25400000D03*
X55118000Y-22860000D03*
X55118000Y-25400000D03*
X52578000Y-22860000D03*
X52578000Y-25400000D03*
X50038000Y-22860000D03*
X50038000Y-25400000D03*
X47498000Y-22860000D03*
X47498000Y-25400000D03*
X44958000Y-22860000D03*
X44958000Y-25400000D03*
X42418000Y-22860000D03*
X42418000Y-25400000D03*
X39878000Y-22860000D03*
X39878000Y-25400000D03*
X37338000Y-22860000D03*
X37338000Y-25400000D03*
X34798000Y-22860000D03*
X34798000Y-25400000D03*
X32258000Y-22860000D03*
X32258000Y-25400000D03*
X29718000Y-22860000D03*
X29718000Y-25400000D03*
X27178000Y-22860000D03*
X27178000Y-25400000D03*
D12*
X57658000Y-29591000D03*
D13*
X57658000Y-32131000D03*
X55118000Y-29591000D03*
X55118000Y-32131000D03*
X52578000Y-29591000D03*
X52578000Y-32131000D03*
X50038000Y-29591000D03*
X50038000Y-32131000D03*
X47498000Y-29591000D03*
X47498000Y-32131000D03*
X44958000Y-29591000D03*
X44958000Y-32131000D03*
X42418000Y-29591000D03*
X42418000Y-32131000D03*
X39878000Y-29591000D03*
X39878000Y-32131000D03*
X37338000Y-29591000D03*
X37338000Y-32131000D03*
X34798000Y-29591000D03*
X34798000Y-32131000D03*
X32258000Y-29591000D03*
X32258000Y-32131000D03*
X29718000Y-29591000D03*
X29718000Y-32131000D03*
X27178000Y-29591000D03*
X27178000Y-32131000D03*
D12*
X63627000Y-22352000D03*
D13*
X66167000Y-22352000D03*
X68707000Y-22352000D03*
X71247000Y-22352000D03*
D12*
X63627000Y-27559000D03*
D13*
X66167000Y-27559000D03*
X68707000Y-27559000D03*
X71247000Y-27559000D03*
D12*
X66167000Y-32639000D03*
D13*
X63627000Y-32639000D03*
D12*
X42291000Y-55626000D03*
D13*
X44831000Y-55626000D03*
X29464000Y-55626000D03*
D12*
X26924000Y-55626000D03*
X37211000Y-55626000D03*
D13*
X34671000Y-55626000D03*
D14*
X40132000Y-50292000D03*
X56388000Y-26924000D03*
D15*
X32258000Y-31877000D02*
X32131000Y-31877000D01*
X44831000Y-54229000D02*
X44831000Y-55626000D01*
X44196000Y-53594000D02*
X44831000Y-54229000D01*
X40894000Y-53594000D02*
X44196000Y-53594000D01*
X40132000Y-52832000D02*
X40894000Y-53594000D01*
X40132000Y-52832000D02*
X40132000Y-50292000D01*
X27178000Y-26289000D02*
X27178000Y-25400000D01*
X27813000Y-26924000D02*
X27178000Y-26289000D01*
X56388000Y-26924000D02*
X27813000Y-26924000D01*
D16*
X55118000Y-29591000D02*
X55118000Y-28194000D01*
X26416000Y-36576000D02*
X28702000Y-36576000D01*
X25400000Y-35560000D02*
X26416000Y-36576000D01*
X25400000Y-28702000D02*
X25400000Y-35560000D01*
X26416000Y-27686000D02*
X25400000Y-28702000D01*
X54610000Y-27686000D02*
X26416000Y-27686000D01*
X55118000Y-28194000D02*
X54610000Y-27686000D01*
X55118000Y-29591000D02*
X55118000Y-28321000D01*
X55118000Y-28321000D02*
X55118000Y-28194000D01*
D15*
X55118000Y-22860000D02*
X55118000Y-21717000D01*
X55118000Y-21717000D02*
X55753000Y-21082000D01*
X55753000Y-21082000D02*
X62357000Y-21082000D01*
X62357000Y-21082000D02*
X63627000Y-22352000D01*
D17*
X73508000Y-56998000D02*
X45399190Y-56998000D01*
X45534411Y-56941990D01*
X45777632Y-56779475D01*
X45984475Y-56572632D01*
X46146990Y-56329411D01*
X46258932Y-56059158D01*
X46316000Y-55772260D01*
X46316000Y-55479740D01*
X46258932Y-55192842D01*
X46146990Y-54922589D01*
X45984475Y-54679368D01*
X45777632Y-54472525D01*
X45591000Y-54347822D01*
X45591000Y-54266333D01*
X45594677Y-54229000D01*
X45580003Y-54080014D01*
X45536546Y-53936753D01*
X45465974Y-53804724D01*
X45394799Y-53717997D01*
X45371001Y-53688999D01*
X45342004Y-53665202D01*
X44759803Y-53083002D01*
X44736001Y-53053999D01*
X44707339Y-53030476D01*
X44856759Y-52930637D01*
X45056637Y-52730759D01*
X45212000Y-52498241D01*
X45367363Y-52730759D01*
X45567241Y-52930637D01*
X45802273Y-53087680D01*
X46063426Y-53195853D01*
X46340665Y-53251000D01*
X46623335Y-53251000D01*
X46900574Y-53195853D01*
X47161727Y-53087680D01*
X47396759Y-52930637D01*
X47596637Y-52730759D01*
X47752000Y-52498241D01*
X47907363Y-52730759D01*
X48107241Y-52930637D01*
X48342273Y-53087680D01*
X48603426Y-53195853D01*
X48880665Y-53251000D01*
X49163335Y-53251000D01*
X49440574Y-53195853D01*
X49701727Y-53087680D01*
X49936759Y-52930637D01*
X50136637Y-52730759D01*
X50292000Y-52498241D01*
X50447363Y-52730759D01*
X50647241Y-52930637D01*
X50882273Y-53087680D01*
X51143426Y-53195853D01*
X51420665Y-53251000D01*
X51703335Y-53251000D01*
X51980574Y-53195853D01*
X52241727Y-53087680D01*
X52476759Y-52930637D01*
X52676637Y-52730759D01*
X52832000Y-52498241D01*
X52987363Y-52730759D01*
X53187241Y-52930637D01*
X53422273Y-53087680D01*
X53683426Y-53195853D01*
X53960665Y-53251000D01*
X54243335Y-53251000D01*
X54520574Y-53195853D01*
X54781727Y-53087680D01*
X55016759Y-52930637D01*
X55216637Y-52730759D01*
X55372000Y-52498241D01*
X55527363Y-52730759D01*
X55727241Y-52930637D01*
X55962273Y-53087680D01*
X56223426Y-53195853D01*
X56500665Y-53251000D01*
X56783335Y-53251000D01*
X57060574Y-53195853D01*
X57321727Y-53087680D01*
X57556759Y-52930637D01*
X57756637Y-52730759D01*
X57912000Y-52498241D01*
X58067363Y-52730759D01*
X58267241Y-52930637D01*
X58502273Y-53087680D01*
X58763426Y-53195853D01*
X59040665Y-53251000D01*
X59323335Y-53251000D01*
X59600574Y-53195853D01*
X59861727Y-53087680D01*
X60096759Y-52930637D01*
X60296637Y-52730759D01*
X60452000Y-52498241D01*
X60607363Y-52730759D01*
X60807241Y-52930637D01*
X61042273Y-53087680D01*
X61303426Y-53195853D01*
X61580665Y-53251000D01*
X61863335Y-53251000D01*
X62140574Y-53195853D01*
X62401727Y-53087680D01*
X62636759Y-52930637D01*
X62836637Y-52730759D01*
X62992000Y-52498241D01*
X63147363Y-52730759D01*
X63347241Y-52930637D01*
X63582273Y-53087680D01*
X63843426Y-53195853D01*
X64120665Y-53251000D01*
X64403335Y-53251000D01*
X64680574Y-53195853D01*
X64941727Y-53087680D01*
X65176759Y-52930637D01*
X65376637Y-52730759D01*
X65533680Y-52495727D01*
X65641853Y-52234574D01*
X65697000Y-51957335D01*
X65697000Y-51674665D01*
X65641853Y-51397426D01*
X65533680Y-51136273D01*
X65376637Y-50901241D01*
X65176759Y-50701363D01*
X64941727Y-50544320D01*
X64680574Y-50436147D01*
X64403335Y-50381000D01*
X64120665Y-50381000D01*
X63843426Y-50436147D01*
X63582273Y-50544320D01*
X63347241Y-50701363D01*
X63147363Y-50901241D01*
X62992000Y-51133759D01*
X62836637Y-50901241D01*
X62636759Y-50701363D01*
X62401727Y-50544320D01*
X62140574Y-50436147D01*
X61863335Y-50381000D01*
X61580665Y-50381000D01*
X61303426Y-50436147D01*
X61042273Y-50544320D01*
X60807241Y-50701363D01*
X60607363Y-50901241D01*
X60452000Y-51133759D01*
X60296637Y-50901241D01*
X60096759Y-50701363D01*
X59861727Y-50544320D01*
X59600574Y-50436147D01*
X59323335Y-50381000D01*
X59040665Y-50381000D01*
X58763426Y-50436147D01*
X58502273Y-50544320D01*
X58267241Y-50701363D01*
X58067363Y-50901241D01*
X57912000Y-51133759D01*
X57756637Y-50901241D01*
X57556759Y-50701363D01*
X57321727Y-50544320D01*
X57060574Y-50436147D01*
X56783335Y-50381000D01*
X56500665Y-50381000D01*
X56223426Y-50436147D01*
X55962273Y-50544320D01*
X55727241Y-50701363D01*
X55527363Y-50901241D01*
X55372000Y-51133759D01*
X55216637Y-50901241D01*
X55016759Y-50701363D01*
X54781727Y-50544320D01*
X54520574Y-50436147D01*
X54243335Y-50381000D01*
X53960665Y-50381000D01*
X53683426Y-50436147D01*
X53422273Y-50544320D01*
X53187241Y-50701363D01*
X52987363Y-50901241D01*
X52832000Y-51133759D01*
X52676637Y-50901241D01*
X52476759Y-50701363D01*
X52241727Y-50544320D01*
X51980574Y-50436147D01*
X51703335Y-50381000D01*
X51420665Y-50381000D01*
X51143426Y-50436147D01*
X50882273Y-50544320D01*
X50647241Y-50701363D01*
X50447363Y-50901241D01*
X50292000Y-51133759D01*
X50136637Y-50901241D01*
X49936759Y-50701363D01*
X49701727Y-50544320D01*
X49440574Y-50436147D01*
X49163335Y-50381000D01*
X48880665Y-50381000D01*
X48603426Y-50436147D01*
X48342273Y-50544320D01*
X48107241Y-50701363D01*
X47907363Y-50901241D01*
X47752000Y-51133759D01*
X47596637Y-50901241D01*
X47396759Y-50701363D01*
X47161727Y-50544320D01*
X46900574Y-50436147D01*
X46623335Y-50381000D01*
X46340665Y-50381000D01*
X46063426Y-50436147D01*
X45802273Y-50544320D01*
X45567241Y-50701363D01*
X45367363Y-50901241D01*
X45212000Y-51133759D01*
X45056637Y-50901241D01*
X44856759Y-50701363D01*
X44621727Y-50544320D01*
X44360574Y-50436147D01*
X44083335Y-50381000D01*
X43800665Y-50381000D01*
X43523426Y-50436147D01*
X43262273Y-50544320D01*
X43027241Y-50701363D01*
X42827363Y-50901241D01*
X42672000Y-51133759D01*
X42516637Y-50901241D01*
X42316759Y-50701363D01*
X42081727Y-50544320D01*
X41820574Y-50436147D01*
X41543335Y-50381000D01*
X41260665Y-50381000D01*
X41165821Y-50399866D01*
X41167000Y-50393939D01*
X41167000Y-50190061D01*
X41127226Y-49990102D01*
X41049205Y-49801744D01*
X40935937Y-49632226D01*
X40791774Y-49488063D01*
X40622256Y-49374795D01*
X40433898Y-49296774D01*
X40233939Y-49257000D01*
X40030061Y-49257000D01*
X39830102Y-49296774D01*
X39641744Y-49374795D01*
X39472226Y-49488063D01*
X39328063Y-49632226D01*
X39214795Y-49801744D01*
X39136774Y-49990102D01*
X39097000Y-50190061D01*
X39097000Y-50393939D01*
X39098179Y-50399866D01*
X39003335Y-50381000D01*
X38720665Y-50381000D01*
X38443426Y-50436147D01*
X38182273Y-50544320D01*
X37947241Y-50701363D01*
X37747363Y-50901241D01*
X37590320Y-51136273D01*
X37585933Y-51146865D01*
X37474385Y-50960869D01*
X37285414Y-50752481D01*
X37059420Y-50584963D01*
X36805087Y-50464754D01*
X36671039Y-50424096D01*
X36449000Y-50546085D01*
X36449000Y-51689000D01*
X36469000Y-51689000D01*
X36469000Y-51943000D01*
X36449000Y-51943000D01*
X36449000Y-53085915D01*
X36671039Y-53207904D01*
X36805087Y-53167246D01*
X37059420Y-53047037D01*
X37285414Y-52879519D01*
X37474385Y-52671131D01*
X37585933Y-52485135D01*
X37590320Y-52495727D01*
X37747363Y-52730759D01*
X37947241Y-52930637D01*
X38182273Y-53087680D01*
X38443426Y-53195853D01*
X38720665Y-53251000D01*
X39003335Y-53251000D01*
X39280574Y-53195853D01*
X39431347Y-53133401D01*
X39497026Y-53256276D01*
X39534348Y-53301753D01*
X39591999Y-53372001D01*
X39621002Y-53395803D01*
X40330201Y-54105002D01*
X40353999Y-54134001D01*
X40469724Y-54228974D01*
X40601753Y-54299546D01*
X40745014Y-54343003D01*
X40856667Y-54354000D01*
X40856675Y-54354000D01*
X40894000Y-54357676D01*
X40931325Y-54354000D01*
X40965864Y-54354000D01*
X40910463Y-54421506D01*
X40851498Y-54531820D01*
X40815188Y-54651518D01*
X40802928Y-54776000D01*
X40802928Y-56476000D01*
X40815188Y-56600482D01*
X40851498Y-56720180D01*
X40910463Y-56830494D01*
X40989815Y-56927185D01*
X41076104Y-56998000D01*
X38425896Y-56998000D01*
X38512185Y-56927185D01*
X38591537Y-56830494D01*
X38650502Y-56720180D01*
X38686812Y-56600482D01*
X38699072Y-56476000D01*
X38699072Y-54776000D01*
X38686812Y-54651518D01*
X38650502Y-54531820D01*
X38591537Y-54421506D01*
X38512185Y-54324815D01*
X38415494Y-54245463D01*
X38305180Y-54186498D01*
X38185482Y-54150188D01*
X38061000Y-54137928D01*
X36361000Y-54137928D01*
X36236518Y-54150188D01*
X36116820Y-54186498D01*
X36006506Y-54245463D01*
X35909815Y-54324815D01*
X35830463Y-54421506D01*
X35771498Y-54531820D01*
X35749487Y-54604380D01*
X35617632Y-54472525D01*
X35374411Y-54310010D01*
X35104158Y-54198068D01*
X34817260Y-54141000D01*
X34524740Y-54141000D01*
X34237842Y-54198068D01*
X33967589Y-54310010D01*
X33724368Y-54472525D01*
X33517525Y-54679368D01*
X33355010Y-54922589D01*
X33243068Y-55192842D01*
X33186000Y-55479740D01*
X33186000Y-55772260D01*
X33243068Y-56059158D01*
X33355010Y-56329411D01*
X33517525Y-56572632D01*
X33724368Y-56779475D01*
X33967589Y-56941990D01*
X34102810Y-56998000D01*
X30032190Y-56998000D01*
X30167411Y-56941990D01*
X30410632Y-56779475D01*
X30617475Y-56572632D01*
X30779990Y-56329411D01*
X30891932Y-56059158D01*
X30949000Y-55772260D01*
X30949000Y-55479740D01*
X30891932Y-55192842D01*
X30779990Y-54922589D01*
X30617475Y-54679368D01*
X30410632Y-54472525D01*
X30167411Y-54310010D01*
X29897158Y-54198068D01*
X29610260Y-54141000D01*
X29317740Y-54141000D01*
X29030842Y-54198068D01*
X28760589Y-54310010D01*
X28517368Y-54472525D01*
X28385513Y-54604380D01*
X28363502Y-54531820D01*
X28304537Y-54421506D01*
X28225185Y-54324815D01*
X28128494Y-54245463D01*
X28018180Y-54186498D01*
X27898482Y-54150188D01*
X27774000Y-54137928D01*
X26074000Y-54137928D01*
X25949518Y-54150188D01*
X25829820Y-54186498D01*
X25719506Y-54245463D01*
X25622815Y-54324815D01*
X25543463Y-54421506D01*
X25484498Y-54531820D01*
X25448188Y-54651518D01*
X25435928Y-54776000D01*
X25435928Y-56476000D01*
X25448188Y-56600482D01*
X25484498Y-56720180D01*
X25543463Y-56830494D01*
X25622815Y-56927185D01*
X25709104Y-56998000D01*
X24282000Y-56998000D01*
X24282000Y-51016000D01*
X27263928Y-51016000D01*
X27263928Y-52616000D01*
X27276188Y-52740482D01*
X27312498Y-52860180D01*
X27371463Y-52970494D01*
X27450815Y-53067185D01*
X27547506Y-53146537D01*
X27657820Y-53205502D01*
X27777518Y-53241812D01*
X27902000Y-53254072D01*
X29502000Y-53254072D01*
X29626482Y-53241812D01*
X29746180Y-53205502D01*
X29856494Y-53146537D01*
X29953185Y-53067185D01*
X30032537Y-52970494D01*
X30091502Y-52860180D01*
X30127812Y-52740482D01*
X30128643Y-52732039D01*
X30327241Y-52930637D01*
X30562273Y-53087680D01*
X30823426Y-53195853D01*
X31100665Y-53251000D01*
X31383335Y-53251000D01*
X31660574Y-53195853D01*
X31921727Y-53087680D01*
X32156759Y-52930637D01*
X32356637Y-52730759D01*
X32512000Y-52498241D01*
X32667363Y-52730759D01*
X32867241Y-52930637D01*
X33102273Y-53087680D01*
X33363426Y-53195853D01*
X33640665Y-53251000D01*
X33923335Y-53251000D01*
X34200574Y-53195853D01*
X34461727Y-53087680D01*
X34696759Y-52930637D01*
X34896637Y-52730759D01*
X35053680Y-52495727D01*
X35058067Y-52485135D01*
X35169615Y-52671131D01*
X35358586Y-52879519D01*
X35584580Y-53047037D01*
X35838913Y-53167246D01*
X35972961Y-53207904D01*
X36195000Y-53085915D01*
X36195000Y-51943000D01*
X36175000Y-51943000D01*
X36175000Y-51689000D01*
X36195000Y-51689000D01*
X36195000Y-50546085D01*
X35972961Y-50424096D01*
X35838913Y-50464754D01*
X35584580Y-50584963D01*
X35358586Y-50752481D01*
X35169615Y-50960869D01*
X35058067Y-51146865D01*
X35053680Y-51136273D01*
X34896637Y-50901241D01*
X34696759Y-50701363D01*
X34461727Y-50544320D01*
X34200574Y-50436147D01*
X33923335Y-50381000D01*
X33640665Y-50381000D01*
X33363426Y-50436147D01*
X33102273Y-50544320D01*
X32867241Y-50701363D01*
X32667363Y-50901241D01*
X32512000Y-51133759D01*
X32356637Y-50901241D01*
X32156759Y-50701363D01*
X31921727Y-50544320D01*
X31660574Y-50436147D01*
X31383335Y-50381000D01*
X31100665Y-50381000D01*
X30823426Y-50436147D01*
X30562273Y-50544320D01*
X30327241Y-50701363D01*
X30128643Y-50899961D01*
X30127812Y-50891518D01*
X30091502Y-50771820D01*
X30032537Y-50661506D01*
X29953185Y-50564815D01*
X29856494Y-50485463D01*
X29746180Y-50426498D01*
X29626482Y-50390188D01*
X29502000Y-50377928D01*
X27902000Y-50377928D01*
X27777518Y-50390188D01*
X27657820Y-50426498D01*
X27547506Y-50485463D01*
X27450815Y-50564815D01*
X27371463Y-50661506D01*
X27312498Y-50771820D01*
X27276188Y-50891518D01*
X27263928Y-51016000D01*
X24282000Y-51016000D01*
X24282000Y-28702000D01*
X24510719Y-28702000D01*
X24515000Y-28745469D01*
X24515001Y-35516521D01*
X24510719Y-35560000D01*
X24527805Y-35733490D01*
X24578412Y-35900313D01*
X24660590Y-36054059D01*
X24743468Y-36155046D01*
X24743471Y-36155049D01*
X24771184Y-36188817D01*
X24804951Y-36216529D01*
X25759470Y-37171049D01*
X25787183Y-37204817D01*
X25820951Y-37232530D01*
X25820953Y-37232532D01*
X25849216Y-37255727D01*
X25921941Y-37315411D01*
X26075687Y-37397589D01*
X26191903Y-37432843D01*
X26242509Y-37448195D01*
X26257306Y-37449652D01*
X26372523Y-37461000D01*
X26372531Y-37461000D01*
X26416000Y-37465281D01*
X26459469Y-37461000D01*
X27567479Y-37461000D01*
X27587363Y-37490759D01*
X27787241Y-37690637D01*
X28022273Y-37847680D01*
X28283426Y-37955853D01*
X28560665Y-38011000D01*
X28843335Y-38011000D01*
X29120574Y-37955853D01*
X29381727Y-37847680D01*
X29616759Y-37690637D01*
X29816637Y-37490759D01*
X29973680Y-37255727D01*
X29978067Y-37245135D01*
X30089615Y-37431131D01*
X30278586Y-37639519D01*
X30504580Y-37807037D01*
X30758913Y-37927246D01*
X30892961Y-37967904D01*
X31115000Y-37845915D01*
X31115000Y-36703000D01*
X31095000Y-36703000D01*
X31095000Y-36449000D01*
X31115000Y-36449000D01*
X31115000Y-35306085D01*
X31369000Y-35306085D01*
X31369000Y-36449000D01*
X31389000Y-36449000D01*
X31389000Y-36703000D01*
X31369000Y-36703000D01*
X31369000Y-37845915D01*
X31591039Y-37967904D01*
X31725087Y-37927246D01*
X31979420Y-37807037D01*
X32205414Y-37639519D01*
X32394385Y-37431131D01*
X32505933Y-37245135D01*
X32510320Y-37255727D01*
X32667363Y-37490759D01*
X32867241Y-37690637D01*
X33102273Y-37847680D01*
X33363426Y-37955853D01*
X33640665Y-38011000D01*
X33923335Y-38011000D01*
X34200574Y-37955853D01*
X34461727Y-37847680D01*
X34696759Y-37690637D01*
X34896637Y-37490759D01*
X35052000Y-37258241D01*
X35207363Y-37490759D01*
X35407241Y-37690637D01*
X35642273Y-37847680D01*
X35903426Y-37955853D01*
X36180665Y-38011000D01*
X36463335Y-38011000D01*
X36740574Y-37955853D01*
X37001727Y-37847680D01*
X37236759Y-37690637D01*
X37436637Y-37490759D01*
X37592000Y-37258241D01*
X37747363Y-37490759D01*
X37947241Y-37690637D01*
X38182273Y-37847680D01*
X38443426Y-37955853D01*
X38720665Y-38011000D01*
X39003335Y-38011000D01*
X39280574Y-37955853D01*
X39541727Y-37847680D01*
X39776759Y-37690637D01*
X39976637Y-37490759D01*
X40132000Y-37258241D01*
X40287363Y-37490759D01*
X40487241Y-37690637D01*
X40722273Y-37847680D01*
X40983426Y-37955853D01*
X41260665Y-38011000D01*
X41543335Y-38011000D01*
X41820574Y-37955853D01*
X42081727Y-37847680D01*
X42316759Y-37690637D01*
X42516637Y-37490759D01*
X42672000Y-37258241D01*
X42827363Y-37490759D01*
X43027241Y-37690637D01*
X43262273Y-37847680D01*
X43523426Y-37955853D01*
X43800665Y-38011000D01*
X44083335Y-38011000D01*
X44360574Y-37955853D01*
X44621727Y-37847680D01*
X44856759Y-37690637D01*
X45056637Y-37490759D01*
X45212000Y-37258241D01*
X45367363Y-37490759D01*
X45567241Y-37690637D01*
X45802273Y-37847680D01*
X46063426Y-37955853D01*
X46340665Y-38011000D01*
X46623335Y-38011000D01*
X46900574Y-37955853D01*
X47161727Y-37847680D01*
X47396759Y-37690637D01*
X47596637Y-37490759D01*
X47752000Y-37258241D01*
X47907363Y-37490759D01*
X48107241Y-37690637D01*
X48342273Y-37847680D01*
X48603426Y-37955853D01*
X48880665Y-38011000D01*
X49163335Y-38011000D01*
X49440574Y-37955853D01*
X49701727Y-37847680D01*
X49936759Y-37690637D01*
X50136637Y-37490759D01*
X50292000Y-37258241D01*
X50447363Y-37490759D01*
X50647241Y-37690637D01*
X50882273Y-37847680D01*
X51143426Y-37955853D01*
X51420665Y-38011000D01*
X51703335Y-38011000D01*
X51980574Y-37955853D01*
X52241727Y-37847680D01*
X52476759Y-37690637D01*
X52676637Y-37490759D01*
X52832000Y-37258241D01*
X52987363Y-37490759D01*
X53187241Y-37690637D01*
X53422273Y-37847680D01*
X53683426Y-37955853D01*
X53960665Y-38011000D01*
X54243335Y-38011000D01*
X54520574Y-37955853D01*
X54781727Y-37847680D01*
X55016759Y-37690637D01*
X55216637Y-37490759D01*
X55372000Y-37258241D01*
X55527363Y-37490759D01*
X55727241Y-37690637D01*
X55962273Y-37847680D01*
X56223426Y-37955853D01*
X56500665Y-38011000D01*
X56783335Y-38011000D01*
X57060574Y-37955853D01*
X57321727Y-37847680D01*
X57556759Y-37690637D01*
X57756637Y-37490759D01*
X57912000Y-37258241D01*
X58067363Y-37490759D01*
X58267241Y-37690637D01*
X58502273Y-37847680D01*
X58763426Y-37955853D01*
X59040665Y-38011000D01*
X59323335Y-38011000D01*
X59600574Y-37955853D01*
X59861727Y-37847680D01*
X60096759Y-37690637D01*
X60296637Y-37490759D01*
X60452000Y-37258241D01*
X60607363Y-37490759D01*
X60807241Y-37690637D01*
X61042273Y-37847680D01*
X61303426Y-37955853D01*
X61580665Y-38011000D01*
X61863335Y-38011000D01*
X62140574Y-37955853D01*
X62401727Y-37847680D01*
X62636759Y-37690637D01*
X62836637Y-37490759D01*
X62992000Y-37258241D01*
X63147363Y-37490759D01*
X63347241Y-37690637D01*
X63582273Y-37847680D01*
X63843426Y-37955853D01*
X64120665Y-38011000D01*
X64403335Y-38011000D01*
X64680574Y-37955853D01*
X64941727Y-37847680D01*
X65176759Y-37690637D01*
X65376637Y-37490759D01*
X65533680Y-37255727D01*
X65641853Y-36994574D01*
X65697000Y-36717335D01*
X65697000Y-36434665D01*
X65641853Y-36157426D01*
X65533680Y-35896273D01*
X65376637Y-35661241D01*
X65176759Y-35461363D01*
X64941727Y-35304320D01*
X64680574Y-35196147D01*
X64403335Y-35141000D01*
X64120665Y-35141000D01*
X63843426Y-35196147D01*
X63582273Y-35304320D01*
X63347241Y-35461363D01*
X63147363Y-35661241D01*
X62992000Y-35893759D01*
X62836637Y-35661241D01*
X62636759Y-35461363D01*
X62401727Y-35304320D01*
X62140574Y-35196147D01*
X61863335Y-35141000D01*
X61580665Y-35141000D01*
X61303426Y-35196147D01*
X61042273Y-35304320D01*
X60807241Y-35461363D01*
X60607363Y-35661241D01*
X60452000Y-35893759D01*
X60296637Y-35661241D01*
X60096759Y-35461363D01*
X59861727Y-35304320D01*
X59600574Y-35196147D01*
X59323335Y-35141000D01*
X59040665Y-35141000D01*
X58763426Y-35196147D01*
X58502273Y-35304320D01*
X58267241Y-35461363D01*
X58067363Y-35661241D01*
X57912000Y-35893759D01*
X57756637Y-35661241D01*
X57556759Y-35461363D01*
X57321727Y-35304320D01*
X57060574Y-35196147D01*
X56783335Y-35141000D01*
X56500665Y-35141000D01*
X56223426Y-35196147D01*
X55962273Y-35304320D01*
X55727241Y-35461363D01*
X55527363Y-35661241D01*
X55372000Y-35893759D01*
X55216637Y-35661241D01*
X55016759Y-35461363D01*
X54781727Y-35304320D01*
X54520574Y-35196147D01*
X54243335Y-35141000D01*
X53960665Y-35141000D01*
X53683426Y-35196147D01*
X53422273Y-35304320D01*
X53187241Y-35461363D01*
X52987363Y-35661241D01*
X52832000Y-35893759D01*
X52676637Y-35661241D01*
X52476759Y-35461363D01*
X52241727Y-35304320D01*
X51980574Y-35196147D01*
X51703335Y-35141000D01*
X51420665Y-35141000D01*
X51143426Y-35196147D01*
X50882273Y-35304320D01*
X50647241Y-35461363D01*
X50447363Y-35661241D01*
X50292000Y-35893759D01*
X50136637Y-35661241D01*
X49936759Y-35461363D01*
X49701727Y-35304320D01*
X49440574Y-35196147D01*
X49163335Y-35141000D01*
X48880665Y-35141000D01*
X48603426Y-35196147D01*
X48342273Y-35304320D01*
X48107241Y-35461363D01*
X47907363Y-35661241D01*
X47752000Y-35893759D01*
X47596637Y-35661241D01*
X47396759Y-35461363D01*
X47161727Y-35304320D01*
X46900574Y-35196147D01*
X46623335Y-35141000D01*
X46340665Y-35141000D01*
X46063426Y-35196147D01*
X45802273Y-35304320D01*
X45567241Y-35461363D01*
X45367363Y-35661241D01*
X45212000Y-35893759D01*
X45056637Y-35661241D01*
X44856759Y-35461363D01*
X44621727Y-35304320D01*
X44360574Y-35196147D01*
X44083335Y-35141000D01*
X43800665Y-35141000D01*
X43523426Y-35196147D01*
X43262273Y-35304320D01*
X43027241Y-35461363D01*
X42827363Y-35661241D01*
X42672000Y-35893759D01*
X42516637Y-35661241D01*
X42316759Y-35461363D01*
X42081727Y-35304320D01*
X41820574Y-35196147D01*
X41543335Y-35141000D01*
X41260665Y-35141000D01*
X40983426Y-35196147D01*
X40722273Y-35304320D01*
X40487241Y-35461363D01*
X40287363Y-35661241D01*
X40132000Y-35893759D01*
X39976637Y-35661241D01*
X39776759Y-35461363D01*
X39541727Y-35304320D01*
X39280574Y-35196147D01*
X39003335Y-35141000D01*
X38720665Y-35141000D01*
X38443426Y-35196147D01*
X38182273Y-35304320D01*
X37947241Y-35461363D01*
X37747363Y-35661241D01*
X37592000Y-35893759D01*
X37436637Y-35661241D01*
X37236759Y-35461363D01*
X37001727Y-35304320D01*
X36740574Y-35196147D01*
X36463335Y-35141000D01*
X36180665Y-35141000D01*
X35903426Y-35196147D01*
X35642273Y-35304320D01*
X35407241Y-35461363D01*
X35207363Y-35661241D01*
X35052000Y-35893759D01*
X34896637Y-35661241D01*
X34696759Y-35461363D01*
X34461727Y-35304320D01*
X34200574Y-35196147D01*
X33923335Y-35141000D01*
X33640665Y-35141000D01*
X33363426Y-35196147D01*
X33102273Y-35304320D01*
X32867241Y-35461363D01*
X32667363Y-35661241D01*
X32510320Y-35896273D01*
X32505933Y-35906865D01*
X32394385Y-35720869D01*
X32205414Y-35512481D01*
X31979420Y-35344963D01*
X31725087Y-35224754D01*
X31591039Y-35184096D01*
X31369000Y-35306085D01*
X31115000Y-35306085D01*
X30892961Y-35184096D01*
X30758913Y-35224754D01*
X30504580Y-35344963D01*
X30278586Y-35512481D01*
X30089615Y-35720869D01*
X29978067Y-35906865D01*
X29973680Y-35896273D01*
X29816637Y-35661241D01*
X29616759Y-35461363D01*
X29381727Y-35304320D01*
X29120574Y-35196147D01*
X28843335Y-35141000D01*
X28560665Y-35141000D01*
X28283426Y-35196147D01*
X28022273Y-35304320D01*
X27787241Y-35461363D01*
X27587363Y-35661241D01*
X27567479Y-35691000D01*
X26782579Y-35691000D01*
X26285000Y-35193422D01*
X26285000Y-33320311D01*
X26474589Y-33446990D01*
X26744842Y-33558932D01*
X27031740Y-33616000D01*
X27324260Y-33616000D01*
X27611158Y-33558932D01*
X27881411Y-33446990D01*
X28124632Y-33284475D01*
X28331475Y-33077632D01*
X28453195Y-32895466D01*
X28522822Y-33012355D01*
X28717731Y-33228588D01*
X28951080Y-33402641D01*
X29213901Y-33527825D01*
X29361110Y-33572476D01*
X29591000Y-33451155D01*
X29591000Y-32258000D01*
X29571000Y-32258000D01*
X29571000Y-32004000D01*
X29591000Y-32004000D01*
X29591000Y-29718000D01*
X29571000Y-29718000D01*
X29571000Y-29464000D01*
X29591000Y-29464000D01*
X29591000Y-29444000D01*
X29845000Y-29444000D01*
X29845000Y-29464000D01*
X29865000Y-29464000D01*
X29865000Y-29718000D01*
X29845000Y-29718000D01*
X29845000Y-32004000D01*
X29865000Y-32004000D01*
X29865000Y-32258000D01*
X29845000Y-32258000D01*
X29845000Y-33451155D01*
X30074890Y-33572476D01*
X30222099Y-33527825D01*
X30484920Y-33402641D01*
X30718269Y-33228588D01*
X30913178Y-33012355D01*
X30982805Y-32895466D01*
X31104525Y-33077632D01*
X31311368Y-33284475D01*
X31554589Y-33446990D01*
X31824842Y-33558932D01*
X32111740Y-33616000D01*
X32404260Y-33616000D01*
X32691158Y-33558932D01*
X32961411Y-33446990D01*
X33204632Y-33284475D01*
X33411475Y-33077632D01*
X33528000Y-32903240D01*
X33644525Y-33077632D01*
X33851368Y-33284475D01*
X34094589Y-33446990D01*
X34364842Y-33558932D01*
X34651740Y-33616000D01*
X34944260Y-33616000D01*
X35231158Y-33558932D01*
X35501411Y-33446990D01*
X35744632Y-33284475D01*
X35951475Y-33077632D01*
X36068000Y-32903240D01*
X36184525Y-33077632D01*
X36391368Y-33284475D01*
X36634589Y-33446990D01*
X36904842Y-33558932D01*
X37191740Y-33616000D01*
X37484260Y-33616000D01*
X37771158Y-33558932D01*
X38041411Y-33446990D01*
X38284632Y-33284475D01*
X38491475Y-33077632D01*
X38608000Y-32903240D01*
X38724525Y-33077632D01*
X38931368Y-33284475D01*
X39174589Y-33446990D01*
X39444842Y-33558932D01*
X39731740Y-33616000D01*
X40024260Y-33616000D01*
X40311158Y-33558932D01*
X40581411Y-33446990D01*
X40824632Y-33284475D01*
X41031475Y-33077632D01*
X41148000Y-32903240D01*
X41264525Y-33077632D01*
X41471368Y-33284475D01*
X41714589Y-33446990D01*
X41984842Y-33558932D01*
X42271740Y-33616000D01*
X42564260Y-33616000D01*
X42851158Y-33558932D01*
X43121411Y-33446990D01*
X43364632Y-33284475D01*
X43571475Y-33077632D01*
X43688000Y-32903240D01*
X43804525Y-33077632D01*
X44011368Y-33284475D01*
X44254589Y-33446990D01*
X44524842Y-33558932D01*
X44811740Y-33616000D01*
X45104260Y-33616000D01*
X45391158Y-33558932D01*
X45661411Y-33446990D01*
X45904632Y-33284475D01*
X46111475Y-33077632D01*
X46228000Y-32903240D01*
X46344525Y-33077632D01*
X46551368Y-33284475D01*
X46794589Y-33446990D01*
X47064842Y-33558932D01*
X47351740Y-33616000D01*
X47644260Y-33616000D01*
X47931158Y-33558932D01*
X48201411Y-33446990D01*
X48444632Y-33284475D01*
X48651475Y-33077632D01*
X48768000Y-32903240D01*
X48884525Y-33077632D01*
X49091368Y-33284475D01*
X49334589Y-33446990D01*
X49604842Y-33558932D01*
X49891740Y-33616000D01*
X50184260Y-33616000D01*
X50471158Y-33558932D01*
X50741411Y-33446990D01*
X50984632Y-33284475D01*
X51191475Y-33077632D01*
X51308000Y-32903240D01*
X51424525Y-33077632D01*
X51631368Y-33284475D01*
X51874589Y-33446990D01*
X52144842Y-33558932D01*
X52431740Y-33616000D01*
X52724260Y-33616000D01*
X53011158Y-33558932D01*
X53281411Y-33446990D01*
X53524632Y-33284475D01*
X53731475Y-33077632D01*
X53848000Y-32903240D01*
X53964525Y-33077632D01*
X54171368Y-33284475D01*
X54414589Y-33446990D01*
X54684842Y-33558932D01*
X54971740Y-33616000D01*
X55264260Y-33616000D01*
X55551158Y-33558932D01*
X55821411Y-33446990D01*
X56064632Y-33284475D01*
X56271475Y-33077632D01*
X56393195Y-32895466D01*
X56462822Y-33012355D01*
X56657731Y-33228588D01*
X56891080Y-33402641D01*
X57153901Y-33527825D01*
X57301110Y-33572476D01*
X57531000Y-33451155D01*
X57531000Y-32258000D01*
X57785000Y-32258000D01*
X57785000Y-33451155D01*
X58014890Y-33572476D01*
X58162099Y-33527825D01*
X58424920Y-33402641D01*
X58658269Y-33228588D01*
X58853178Y-33012355D01*
X59002157Y-32762252D01*
X59097760Y-32492740D01*
X62142000Y-32492740D01*
X62142000Y-32785260D01*
X62199068Y-33072158D01*
X62311010Y-33342411D01*
X62473525Y-33585632D01*
X62680368Y-33792475D01*
X62923589Y-33954990D01*
X63193842Y-34066932D01*
X63480740Y-34124000D01*
X63773260Y-34124000D01*
X64060158Y-34066932D01*
X64330411Y-33954990D01*
X64573632Y-33792475D01*
X64705487Y-33660620D01*
X64727498Y-33733180D01*
X64786463Y-33843494D01*
X64865815Y-33940185D01*
X64962506Y-34019537D01*
X65072820Y-34078502D01*
X65192518Y-34114812D01*
X65317000Y-34127072D01*
X67017000Y-34127072D01*
X67141482Y-34114812D01*
X67261180Y-34078502D01*
X67371494Y-34019537D01*
X67468185Y-33940185D01*
X67547537Y-33843494D01*
X67606502Y-33733180D01*
X67642812Y-33613482D01*
X67655072Y-33489000D01*
X67655072Y-31789000D01*
X67642812Y-31664518D01*
X67606502Y-31544820D01*
X67547537Y-31434506D01*
X67468185Y-31337815D01*
X67371494Y-31258463D01*
X67261180Y-31199498D01*
X67141482Y-31163188D01*
X67017000Y-31150928D01*
X65317000Y-31150928D01*
X65192518Y-31163188D01*
X65072820Y-31199498D01*
X64962506Y-31258463D01*
X64865815Y-31337815D01*
X64786463Y-31434506D01*
X64727498Y-31544820D01*
X64705487Y-31617380D01*
X64573632Y-31485525D01*
X64330411Y-31323010D01*
X64060158Y-31211068D01*
X63773260Y-31154000D01*
X63480740Y-31154000D01*
X63193842Y-31211068D01*
X62923589Y-31323010D01*
X62680368Y-31485525D01*
X62473525Y-31692368D01*
X62311010Y-31935589D01*
X62199068Y-32205842D01*
X62142000Y-32492740D01*
X59097760Y-32492740D01*
X59099481Y-32487891D01*
X58978814Y-32258000D01*
X57785000Y-32258000D01*
X57531000Y-32258000D01*
X57511000Y-32258000D01*
X57511000Y-32004000D01*
X57531000Y-32004000D01*
X57531000Y-29718000D01*
X57785000Y-29718000D01*
X57785000Y-32004000D01*
X58978814Y-32004000D01*
X59099481Y-31774109D01*
X59002157Y-31499748D01*
X58853178Y-31249645D01*
X58676374Y-31053498D01*
X58752180Y-31030502D01*
X58862494Y-30971537D01*
X58959185Y-30892185D01*
X59038537Y-30795494D01*
X59097502Y-30685180D01*
X59133812Y-30565482D01*
X59146072Y-30441000D01*
X59143000Y-29876750D01*
X58984250Y-29718000D01*
X57785000Y-29718000D01*
X57531000Y-29718000D01*
X57511000Y-29718000D01*
X57511000Y-29464000D01*
X57531000Y-29464000D01*
X57531000Y-28264750D01*
X57785000Y-28264750D01*
X57785000Y-29464000D01*
X58984250Y-29464000D01*
X59143000Y-29305250D01*
X59146072Y-28741000D01*
X59133812Y-28616518D01*
X59097502Y-28496820D01*
X59038537Y-28386506D01*
X58959185Y-28289815D01*
X58862494Y-28210463D01*
X58752180Y-28151498D01*
X58632482Y-28115188D01*
X58508000Y-28102928D01*
X57943750Y-28106000D01*
X57785000Y-28264750D01*
X57531000Y-28264750D01*
X57372250Y-28106000D01*
X56808000Y-28102928D01*
X56683518Y-28115188D01*
X56563820Y-28151498D01*
X56453506Y-28210463D01*
X56356815Y-28289815D01*
X56277463Y-28386506D01*
X56218498Y-28496820D01*
X56196487Y-28569380D01*
X56064632Y-28437525D01*
X56003000Y-28396344D01*
X56003000Y-28237465D01*
X56007281Y-28193999D01*
X56003000Y-28150533D01*
X56003000Y-28150523D01*
X55990195Y-28020510D01*
X55941272Y-27859235D01*
X56086102Y-27919226D01*
X56286061Y-27959000D01*
X56489939Y-27959000D01*
X56689898Y-27919226D01*
X56878256Y-27841205D01*
X57047774Y-27727937D01*
X57191937Y-27583774D01*
X57305205Y-27414256D01*
X57383226Y-27225898D01*
X57423000Y-27025939D01*
X57423000Y-26822061D01*
X57414915Y-26781417D01*
X57531000Y-26720155D01*
X57531000Y-25527000D01*
X57785000Y-25527000D01*
X57785000Y-26720155D01*
X58014890Y-26841476D01*
X58162099Y-26796825D01*
X58346485Y-26709000D01*
X62138928Y-26709000D01*
X62138928Y-28409000D01*
X62151188Y-28533482D01*
X62187498Y-28653180D01*
X62246463Y-28763494D01*
X62325815Y-28860185D01*
X62422506Y-28939537D01*
X62532820Y-28998502D01*
X62652518Y-29034812D01*
X62777000Y-29047072D01*
X64477000Y-29047072D01*
X64601482Y-29034812D01*
X64721180Y-28998502D01*
X64831494Y-28939537D01*
X64928185Y-28860185D01*
X65007537Y-28763494D01*
X65066502Y-28653180D01*
X65090966Y-28572534D01*
X65166731Y-28656588D01*
X65400080Y-28830641D01*
X65662901Y-28955825D01*
X65810110Y-29000476D01*
X66040000Y-28879155D01*
X66040000Y-27686000D01*
X66020000Y-27686000D01*
X66020000Y-27432000D01*
X66040000Y-27432000D01*
X66040000Y-26238845D01*
X66294000Y-26238845D01*
X66294000Y-27432000D01*
X66314000Y-27432000D01*
X66314000Y-27686000D01*
X66294000Y-27686000D01*
X66294000Y-28879155D01*
X66523890Y-29000476D01*
X66671099Y-28955825D01*
X66933920Y-28830641D01*
X67167269Y-28656588D01*
X67362178Y-28440355D01*
X67431805Y-28323466D01*
X67553525Y-28505632D01*
X67760368Y-28712475D01*
X68003589Y-28874990D01*
X68273842Y-28986932D01*
X68560740Y-29044000D01*
X68853260Y-29044000D01*
X69140158Y-28986932D01*
X69410411Y-28874990D01*
X69653632Y-28712475D01*
X69860475Y-28505632D01*
X69977000Y-28331240D01*
X70093525Y-28505632D01*
X70300368Y-28712475D01*
X70543589Y-28874990D01*
X70813842Y-28986932D01*
X71100740Y-29044000D01*
X71393260Y-29044000D01*
X71680158Y-28986932D01*
X71950411Y-28874990D01*
X72193632Y-28712475D01*
X72400475Y-28505632D01*
X72562990Y-28262411D01*
X72674932Y-27992158D01*
X72732000Y-27705260D01*
X72732000Y-27412740D01*
X72674932Y-27125842D01*
X72562990Y-26855589D01*
X72400475Y-26612368D01*
X72193632Y-26405525D01*
X71950411Y-26243010D01*
X71680158Y-26131068D01*
X71393260Y-26074000D01*
X71100740Y-26074000D01*
X70813842Y-26131068D01*
X70543589Y-26243010D01*
X70300368Y-26405525D01*
X70093525Y-26612368D01*
X69977000Y-26786760D01*
X69860475Y-26612368D01*
X69653632Y-26405525D01*
X69410411Y-26243010D01*
X69140158Y-26131068D01*
X68853260Y-26074000D01*
X68560740Y-26074000D01*
X68273842Y-26131068D01*
X68003589Y-26243010D01*
X67760368Y-26405525D01*
X67553525Y-26612368D01*
X67431805Y-26794534D01*
X67362178Y-26677645D01*
X67167269Y-26461412D01*
X66933920Y-26287359D01*
X66671099Y-26162175D01*
X66523890Y-26117524D01*
X66294000Y-26238845D01*
X66040000Y-26238845D01*
X65810110Y-26117524D01*
X65662901Y-26162175D01*
X65400080Y-26287359D01*
X65166731Y-26461412D01*
X65090966Y-26545466D01*
X65066502Y-26464820D01*
X65007537Y-26354506D01*
X64928185Y-26257815D01*
X64831494Y-26178463D01*
X64721180Y-26119498D01*
X64601482Y-26083188D01*
X64477000Y-26070928D01*
X62777000Y-26070928D01*
X62652518Y-26083188D01*
X62532820Y-26119498D01*
X62422506Y-26178463D01*
X62325815Y-26257815D01*
X62246463Y-26354506D01*
X62187498Y-26464820D01*
X62151188Y-26584518D01*
X62138928Y-26709000D01*
X58346485Y-26709000D01*
X58424920Y-26671641D01*
X58658269Y-26497588D01*
X58853178Y-26281355D01*
X59002157Y-26031252D01*
X59099481Y-25756891D01*
X58978814Y-25527000D01*
X57785000Y-25527000D01*
X57531000Y-25527000D01*
X57511000Y-25527000D01*
X57511000Y-25273000D01*
X57531000Y-25273000D01*
X57531000Y-22987000D01*
X57785000Y-22987000D01*
X57785000Y-25273000D01*
X58978814Y-25273000D01*
X59099481Y-25043109D01*
X59002157Y-24768748D01*
X58853178Y-24518645D01*
X58676374Y-24322498D01*
X58752180Y-24299502D01*
X58862494Y-24240537D01*
X58959185Y-24161185D01*
X59038537Y-24064494D01*
X59097502Y-23954180D01*
X59133812Y-23834482D01*
X59146072Y-23710000D01*
X59143000Y-23145750D01*
X58984250Y-22987000D01*
X57785000Y-22987000D01*
X57531000Y-22987000D01*
X57511000Y-22987000D01*
X57511000Y-22733000D01*
X57531000Y-22733000D01*
X57531000Y-22713000D01*
X57785000Y-22713000D01*
X57785000Y-22733000D01*
X58984250Y-22733000D01*
X59143000Y-22574250D01*
X59146072Y-22010000D01*
X59133812Y-21885518D01*
X59120611Y-21842000D01*
X62042199Y-21842000D01*
X62138928Y-21938729D01*
X62138928Y-23202000D01*
X62151188Y-23326482D01*
X62187498Y-23446180D01*
X62246463Y-23556494D01*
X62325815Y-23653185D01*
X62422506Y-23732537D01*
X62532820Y-23791502D01*
X62652518Y-23827812D01*
X62777000Y-23840072D01*
X64477000Y-23840072D01*
X64601482Y-23827812D01*
X64721180Y-23791502D01*
X64831494Y-23732537D01*
X64928185Y-23653185D01*
X65007537Y-23556494D01*
X65066502Y-23446180D01*
X65088513Y-23373620D01*
X65220368Y-23505475D01*
X65463589Y-23667990D01*
X65733842Y-23779932D01*
X66020740Y-23837000D01*
X66313260Y-23837000D01*
X66600158Y-23779932D01*
X66870411Y-23667990D01*
X67113632Y-23505475D01*
X67320475Y-23298632D01*
X67437000Y-23124240D01*
X67553525Y-23298632D01*
X67760368Y-23505475D01*
X68003589Y-23667990D01*
X68273842Y-23779932D01*
X68560740Y-23837000D01*
X68853260Y-23837000D01*
X69140158Y-23779932D01*
X69410411Y-23667990D01*
X69653632Y-23505475D01*
X69860475Y-23298632D01*
X69982195Y-23116466D01*
X70051822Y-23233355D01*
X70246731Y-23449588D01*
X70480080Y-23623641D01*
X70742901Y-23748825D01*
X70890110Y-23793476D01*
X71120000Y-23672155D01*
X71120000Y-22479000D01*
X71374000Y-22479000D01*
X71374000Y-23672155D01*
X71603890Y-23793476D01*
X71751099Y-23748825D01*
X72013920Y-23623641D01*
X72247269Y-23449588D01*
X72442178Y-23233355D01*
X72591157Y-22983252D01*
X72688481Y-22708891D01*
X72567814Y-22479000D01*
X71374000Y-22479000D01*
X71120000Y-22479000D01*
X71100000Y-22479000D01*
X71100000Y-22225000D01*
X71120000Y-22225000D01*
X71120000Y-21031845D01*
X71374000Y-21031845D01*
X71374000Y-22225000D01*
X72567814Y-22225000D01*
X72688481Y-21995109D01*
X72591157Y-21720748D01*
X72442178Y-21470645D01*
X72247269Y-21254412D01*
X72013920Y-21080359D01*
X71751099Y-20955175D01*
X71603890Y-20910524D01*
X71374000Y-21031845D01*
X71120000Y-21031845D01*
X70890110Y-20910524D01*
X70742901Y-20955175D01*
X70480080Y-21080359D01*
X70246731Y-21254412D01*
X70051822Y-21470645D01*
X69982195Y-21587534D01*
X69860475Y-21405368D01*
X69653632Y-21198525D01*
X69410411Y-21036010D01*
X69140158Y-20924068D01*
X68853260Y-20867000D01*
X68560740Y-20867000D01*
X68273842Y-20924068D01*
X68003589Y-21036010D01*
X67760368Y-21198525D01*
X67553525Y-21405368D01*
X67437000Y-21579760D01*
X67320475Y-21405368D01*
X67113632Y-21198525D01*
X66870411Y-21036010D01*
X66600158Y-20924068D01*
X66313260Y-20867000D01*
X66020740Y-20867000D01*
X65733842Y-20924068D01*
X65463589Y-21036010D01*
X65220368Y-21198525D01*
X65088513Y-21330380D01*
X65066502Y-21257820D01*
X65007537Y-21147506D01*
X64928185Y-21050815D01*
X64831494Y-20971463D01*
X64721180Y-20912498D01*
X64601482Y-20876188D01*
X64477000Y-20863928D01*
X63213729Y-20863928D01*
X62920804Y-20571003D01*
X62897001Y-20541999D01*
X62781276Y-20447026D01*
X62649247Y-20376454D01*
X62505986Y-20332997D01*
X62394333Y-20322000D01*
X62394322Y-20322000D01*
X62357000Y-20318324D01*
X62319678Y-20322000D01*
X55790333Y-20322000D01*
X55753000Y-20318323D01*
X55715667Y-20322000D01*
X55604014Y-20332997D01*
X55460753Y-20376454D01*
X55328724Y-20447026D01*
X55212999Y-20541999D01*
X55189200Y-20570998D01*
X54606998Y-21153201D01*
X54578000Y-21176999D01*
X54554202Y-21205997D01*
X54554201Y-21205998D01*
X54483026Y-21292724D01*
X54412454Y-21424754D01*
X54400800Y-21463175D01*
X54371789Y-21558815D01*
X54368998Y-21568015D01*
X54368317Y-21574928D01*
X54171368Y-21706525D01*
X53964525Y-21913368D01*
X53848000Y-22087760D01*
X53731475Y-21913368D01*
X53524632Y-21706525D01*
X53281411Y-21544010D01*
X53011158Y-21432068D01*
X52724260Y-21375000D01*
X52431740Y-21375000D01*
X52144842Y-21432068D01*
X51874589Y-21544010D01*
X51631368Y-21706525D01*
X51424525Y-21913368D01*
X51308000Y-22087760D01*
X51191475Y-21913368D01*
X50984632Y-21706525D01*
X50741411Y-21544010D01*
X50471158Y-21432068D01*
X50184260Y-21375000D01*
X49891740Y-21375000D01*
X49604842Y-21432068D01*
X49334589Y-21544010D01*
X49091368Y-21706525D01*
X48884525Y-21913368D01*
X48768000Y-22087760D01*
X48651475Y-21913368D01*
X48444632Y-21706525D01*
X48201411Y-21544010D01*
X47931158Y-21432068D01*
X47644260Y-21375000D01*
X47351740Y-21375000D01*
X47064842Y-21432068D01*
X46794589Y-21544010D01*
X46551368Y-21706525D01*
X46344525Y-21913368D01*
X46228000Y-22087760D01*
X46111475Y-21913368D01*
X45904632Y-21706525D01*
X45661411Y-21544010D01*
X45391158Y-21432068D01*
X45104260Y-21375000D01*
X44811740Y-21375000D01*
X44524842Y-21432068D01*
X44254589Y-21544010D01*
X44011368Y-21706525D01*
X43804525Y-21913368D01*
X43688000Y-22087760D01*
X43571475Y-21913368D01*
X43364632Y-21706525D01*
X43121411Y-21544010D01*
X42851158Y-21432068D01*
X42564260Y-21375000D01*
X42271740Y-21375000D01*
X41984842Y-21432068D01*
X41714589Y-21544010D01*
X41471368Y-21706525D01*
X41264525Y-21913368D01*
X41148000Y-22087760D01*
X41031475Y-21913368D01*
X40824632Y-21706525D01*
X40581411Y-21544010D01*
X40311158Y-21432068D01*
X40024260Y-21375000D01*
X39731740Y-21375000D01*
X39444842Y-21432068D01*
X39174589Y-21544010D01*
X38931368Y-21706525D01*
X38724525Y-21913368D01*
X38608000Y-22087760D01*
X38491475Y-21913368D01*
X38284632Y-21706525D01*
X38041411Y-21544010D01*
X37771158Y-21432068D01*
X37484260Y-21375000D01*
X37191740Y-21375000D01*
X36904842Y-21432068D01*
X36634589Y-21544010D01*
X36391368Y-21706525D01*
X36184525Y-21913368D01*
X36068000Y-22087760D01*
X35951475Y-21913368D01*
X35744632Y-21706525D01*
X35501411Y-21544010D01*
X35231158Y-21432068D01*
X34944260Y-21375000D01*
X34651740Y-21375000D01*
X34364842Y-21432068D01*
X34094589Y-21544010D01*
X33851368Y-21706525D01*
X33644525Y-21913368D01*
X33528000Y-22087760D01*
X33411475Y-21913368D01*
X33204632Y-21706525D01*
X32961411Y-21544010D01*
X32691158Y-21432068D01*
X32404260Y-21375000D01*
X32111740Y-21375000D01*
X31824842Y-21432068D01*
X31554589Y-21544010D01*
X31311368Y-21706525D01*
X31104525Y-21913368D01*
X30982805Y-22095534D01*
X30913178Y-21978645D01*
X30718269Y-21762412D01*
X30484920Y-21588359D01*
X30222099Y-21463175D01*
X30074890Y-21418524D01*
X29845000Y-21539845D01*
X29845000Y-22733000D01*
X29865000Y-22733000D01*
X29865000Y-22987000D01*
X29845000Y-22987000D01*
X29845000Y-25273000D01*
X29865000Y-25273000D01*
X29865000Y-25527000D01*
X29845000Y-25527000D01*
X29845000Y-25547000D01*
X29591000Y-25547000D01*
X29591000Y-25527000D01*
X29571000Y-25527000D01*
X29571000Y-25273000D01*
X29591000Y-25273000D01*
X29591000Y-22987000D01*
X29571000Y-22987000D01*
X29571000Y-22733000D01*
X29591000Y-22733000D01*
X29591000Y-21539845D01*
X29361110Y-21418524D01*
X29213901Y-21463175D01*
X28951080Y-21588359D01*
X28717731Y-21762412D01*
X28522822Y-21978645D01*
X28453195Y-22095534D01*
X28331475Y-21913368D01*
X28124632Y-21706525D01*
X27881411Y-21544010D01*
X27611158Y-21432068D01*
X27324260Y-21375000D01*
X27031740Y-21375000D01*
X26744842Y-21432068D01*
X26474589Y-21544010D01*
X26231368Y-21706525D01*
X26024525Y-21913368D01*
X25862010Y-22156589D01*
X25750068Y-22426842D01*
X25693000Y-22713740D01*
X25693000Y-23006260D01*
X25750068Y-23293158D01*
X25862010Y-23563411D01*
X26024525Y-23806632D01*
X26231368Y-24013475D01*
X26405760Y-24130000D01*
X26231368Y-24246525D01*
X26024525Y-24453368D01*
X25862010Y-24696589D01*
X25750068Y-24966842D01*
X25693000Y-25253740D01*
X25693000Y-25546260D01*
X25750068Y-25833158D01*
X25862010Y-26103411D01*
X26024525Y-26346632D01*
X26231368Y-26553475D01*
X26474589Y-26715990D01*
X26581646Y-26760334D01*
X26615019Y-26801000D01*
X26459469Y-26801000D01*
X26416000Y-26796719D01*
X26372531Y-26801000D01*
X26372523Y-26801000D01*
X26257306Y-26812348D01*
X26242509Y-26813805D01*
X26215294Y-26822061D01*
X26075687Y-26864411D01*
X25921941Y-26946589D01*
X25921939Y-26946590D01*
X25921940Y-26946590D01*
X25820953Y-27029468D01*
X25820951Y-27029470D01*
X25787183Y-27057183D01*
X25759470Y-27090951D01*
X24804956Y-28045466D01*
X24771183Y-28073183D01*
X24660589Y-28207942D01*
X24578411Y-28361688D01*
X24564059Y-28409000D01*
X24527805Y-28528510D01*
X24526212Y-28544686D01*
X24515000Y-28658524D01*
X24515000Y-28658531D01*
X24510719Y-28702000D01*
X24282000Y-28702000D01*
X24282000Y-19710000D01*
X73508001Y-19710000D01*
X73508000Y-56998000D01*
%TA.AperFunction,Conductor*%
D18*
G36*
X73508000Y-56998000D02*
G01*
X45399190Y-56998000D01*
X45534411Y-56941990D01*
X45777632Y-56779475D01*
X45984475Y-56572632D01*
X46146990Y-56329411D01*
X46258932Y-56059158D01*
X46316000Y-55772260D01*
X46316000Y-55479740D01*
X46258932Y-55192842D01*
X46146990Y-54922589D01*
X45984475Y-54679368D01*
X45777632Y-54472525D01*
X45591000Y-54347822D01*
X45591000Y-54266333D01*
X45594677Y-54229000D01*
X45580003Y-54080014D01*
X45536546Y-53936753D01*
X45465974Y-53804724D01*
X45394799Y-53717997D01*
X45371001Y-53688999D01*
X45342004Y-53665202D01*
X44759803Y-53083002D01*
X44736001Y-53053999D01*
X44707339Y-53030476D01*
X44856759Y-52930637D01*
X45056637Y-52730759D01*
X45212000Y-52498241D01*
X45367363Y-52730759D01*
X45567241Y-52930637D01*
X45802273Y-53087680D01*
X46063426Y-53195853D01*
X46340665Y-53251000D01*
X46623335Y-53251000D01*
X46900574Y-53195853D01*
X47161727Y-53087680D01*
X47396759Y-52930637D01*
X47596637Y-52730759D01*
X47752000Y-52498241D01*
X47907363Y-52730759D01*
X48107241Y-52930637D01*
X48342273Y-53087680D01*
X48603426Y-53195853D01*
X48880665Y-53251000D01*
X49163335Y-53251000D01*
X49440574Y-53195853D01*
X49701727Y-53087680D01*
X49936759Y-52930637D01*
X50136637Y-52730759D01*
X50292000Y-52498241D01*
X50447363Y-52730759D01*
X50647241Y-52930637D01*
X50882273Y-53087680D01*
X51143426Y-53195853D01*
X51420665Y-53251000D01*
X51703335Y-53251000D01*
X51980574Y-53195853D01*
X52241727Y-53087680D01*
X52476759Y-52930637D01*
X52676637Y-52730759D01*
X52832000Y-52498241D01*
X52987363Y-52730759D01*
X53187241Y-52930637D01*
X53422273Y-53087680D01*
X53683426Y-53195853D01*
X53960665Y-53251000D01*
X54243335Y-53251000D01*
X54520574Y-53195853D01*
X54781727Y-53087680D01*
X55016759Y-52930637D01*
X55216637Y-52730759D01*
X55372000Y-52498241D01*
X55527363Y-52730759D01*
X55727241Y-52930637D01*
X55962273Y-53087680D01*
X56223426Y-53195853D01*
X56500665Y-53251000D01*
X56783335Y-53251000D01*
X57060574Y-53195853D01*
X57321727Y-53087680D01*
X57556759Y-52930637D01*
X57756637Y-52730759D01*
X57912000Y-52498241D01*
X58067363Y-52730759D01*
X58267241Y-52930637D01*
X58502273Y-53087680D01*
X58763426Y-53195853D01*
X59040665Y-53251000D01*
X59323335Y-53251000D01*
X59600574Y-53195853D01*
X59861727Y-53087680D01*
X60096759Y-52930637D01*
X60296637Y-52730759D01*
X60452000Y-52498241D01*
X60607363Y-52730759D01*
X60807241Y-52930637D01*
X61042273Y-53087680D01*
X61303426Y-53195853D01*
X61580665Y-53251000D01*
X61863335Y-53251000D01*
X62140574Y-53195853D01*
X62401727Y-53087680D01*
X62636759Y-52930637D01*
X62836637Y-52730759D01*
X62992000Y-52498241D01*
X63147363Y-52730759D01*
X63347241Y-52930637D01*
X63582273Y-53087680D01*
X63843426Y-53195853D01*
X64120665Y-53251000D01*
X64403335Y-53251000D01*
X64680574Y-53195853D01*
X64941727Y-53087680D01*
X65176759Y-52930637D01*
X65376637Y-52730759D01*
X65533680Y-52495727D01*
X65641853Y-52234574D01*
X65697000Y-51957335D01*
X65697000Y-51674665D01*
X65641853Y-51397426D01*
X65533680Y-51136273D01*
X65376637Y-50901241D01*
X65176759Y-50701363D01*
X64941727Y-50544320D01*
X64680574Y-50436147D01*
X64403335Y-50381000D01*
X64120665Y-50381000D01*
X63843426Y-50436147D01*
X63582273Y-50544320D01*
X63347241Y-50701363D01*
X63147363Y-50901241D01*
X62992000Y-51133759D01*
X62836637Y-50901241D01*
X62636759Y-50701363D01*
X62401727Y-50544320D01*
X62140574Y-50436147D01*
X61863335Y-50381000D01*
X61580665Y-50381000D01*
X61303426Y-50436147D01*
X61042273Y-50544320D01*
X60807241Y-50701363D01*
X60607363Y-50901241D01*
X60452000Y-51133759D01*
X60296637Y-50901241D01*
X60096759Y-50701363D01*
X59861727Y-50544320D01*
X59600574Y-50436147D01*
X59323335Y-50381000D01*
X59040665Y-50381000D01*
X58763426Y-50436147D01*
X58502273Y-50544320D01*
X58267241Y-50701363D01*
X58067363Y-50901241D01*
X57912000Y-51133759D01*
X57756637Y-50901241D01*
X57556759Y-50701363D01*
X57321727Y-50544320D01*
X57060574Y-50436147D01*
X56783335Y-50381000D01*
X56500665Y-50381000D01*
X56223426Y-50436147D01*
X55962273Y-50544320D01*
X55727241Y-50701363D01*
X55527363Y-50901241D01*
X55372000Y-51133759D01*
X55216637Y-50901241D01*
X55016759Y-50701363D01*
X54781727Y-50544320D01*
X54520574Y-50436147D01*
X54243335Y-50381000D01*
X53960665Y-50381000D01*
X53683426Y-50436147D01*
X53422273Y-50544320D01*
X53187241Y-50701363D01*
X52987363Y-50901241D01*
X52832000Y-51133759D01*
X52676637Y-50901241D01*
X52476759Y-50701363D01*
X52241727Y-50544320D01*
X51980574Y-50436147D01*
X51703335Y-50381000D01*
X51420665Y-50381000D01*
X51143426Y-50436147D01*
X50882273Y-50544320D01*
X50647241Y-50701363D01*
X50447363Y-50901241D01*
X50292000Y-51133759D01*
X50136637Y-50901241D01*
X49936759Y-50701363D01*
X49701727Y-50544320D01*
X49440574Y-50436147D01*
X49163335Y-50381000D01*
X48880665Y-50381000D01*
X48603426Y-50436147D01*
X48342273Y-50544320D01*
X48107241Y-50701363D01*
X47907363Y-50901241D01*
X47752000Y-51133759D01*
X47596637Y-50901241D01*
X47396759Y-50701363D01*
X47161727Y-50544320D01*
X46900574Y-50436147D01*
X46623335Y-50381000D01*
X46340665Y-50381000D01*
X46063426Y-50436147D01*
X45802273Y-50544320D01*
X45567241Y-50701363D01*
X45367363Y-50901241D01*
X45212000Y-51133759D01*
X45056637Y-50901241D01*
X44856759Y-50701363D01*
X44621727Y-50544320D01*
X44360574Y-50436147D01*
X44083335Y-50381000D01*
X43800665Y-50381000D01*
X43523426Y-50436147D01*
X43262273Y-50544320D01*
X43027241Y-50701363D01*
X42827363Y-50901241D01*
X42672000Y-51133759D01*
X42516637Y-50901241D01*
X42316759Y-50701363D01*
X42081727Y-50544320D01*
X41820574Y-50436147D01*
X41543335Y-50381000D01*
X41260665Y-50381000D01*
X41165821Y-50399866D01*
X41167000Y-50393939D01*
X41167000Y-50190061D01*
X41127226Y-49990102D01*
X41049205Y-49801744D01*
X40935937Y-49632226D01*
X40791774Y-49488063D01*
X40622256Y-49374795D01*
X40433898Y-49296774D01*
X40233939Y-49257000D01*
X40030061Y-49257000D01*
X39830102Y-49296774D01*
X39641744Y-49374795D01*
X39472226Y-49488063D01*
X39328063Y-49632226D01*
X39214795Y-49801744D01*
X39136774Y-49990102D01*
X39097000Y-50190061D01*
X39097000Y-50393939D01*
X39098179Y-50399866D01*
X39003335Y-50381000D01*
X38720665Y-50381000D01*
X38443426Y-50436147D01*
X38182273Y-50544320D01*
X37947241Y-50701363D01*
X37747363Y-50901241D01*
X37590320Y-51136273D01*
X37585933Y-51146865D01*
X37474385Y-50960869D01*
X37285414Y-50752481D01*
X37059420Y-50584963D01*
X36805087Y-50464754D01*
X36671039Y-50424096D01*
X36449000Y-50546085D01*
X36449000Y-51689000D01*
X36469000Y-51689000D01*
X36469000Y-51943000D01*
X36449000Y-51943000D01*
X36449000Y-53085915D01*
X36671039Y-53207904D01*
X36805087Y-53167246D01*
X37059420Y-53047037D01*
X37285414Y-52879519D01*
X37474385Y-52671131D01*
X37585933Y-52485135D01*
X37590320Y-52495727D01*
X37747363Y-52730759D01*
X37947241Y-52930637D01*
X38182273Y-53087680D01*
X38443426Y-53195853D01*
X38720665Y-53251000D01*
X39003335Y-53251000D01*
X39280574Y-53195853D01*
X39431347Y-53133401D01*
X39497026Y-53256276D01*
X39534348Y-53301753D01*
X39591999Y-53372001D01*
X39621002Y-53395803D01*
X40330201Y-54105002D01*
X40353999Y-54134001D01*
X40469724Y-54228974D01*
X40601753Y-54299546D01*
X40745014Y-54343003D01*
X40856667Y-54354000D01*
X40856675Y-54354000D01*
X40894000Y-54357676D01*
X40931325Y-54354000D01*
X40965864Y-54354000D01*
X40910463Y-54421506D01*
X40851498Y-54531820D01*
X40815188Y-54651518D01*
X40802928Y-54776000D01*
X40802928Y-56476000D01*
X40815188Y-56600482D01*
X40851498Y-56720180D01*
X40910463Y-56830494D01*
X40989815Y-56927185D01*
X41076104Y-56998000D01*
X38425896Y-56998000D01*
X38512185Y-56927185D01*
X38591537Y-56830494D01*
X38650502Y-56720180D01*
X38686812Y-56600482D01*
X38699072Y-56476000D01*
X38699072Y-54776000D01*
X38686812Y-54651518D01*
X38650502Y-54531820D01*
X38591537Y-54421506D01*
X38512185Y-54324815D01*
X38415494Y-54245463D01*
X38305180Y-54186498D01*
X38185482Y-54150188D01*
X38061000Y-54137928D01*
X36361000Y-54137928D01*
X36236518Y-54150188D01*
X36116820Y-54186498D01*
X36006506Y-54245463D01*
X35909815Y-54324815D01*
X35830463Y-54421506D01*
X35771498Y-54531820D01*
X35749487Y-54604380D01*
X35617632Y-54472525D01*
X35374411Y-54310010D01*
X35104158Y-54198068D01*
X34817260Y-54141000D01*
X34524740Y-54141000D01*
X34237842Y-54198068D01*
X33967589Y-54310010D01*
X33724368Y-54472525D01*
X33517525Y-54679368D01*
X33355010Y-54922589D01*
X33243068Y-55192842D01*
X33186000Y-55479740D01*
X33186000Y-55772260D01*
X33243068Y-56059158D01*
X33355010Y-56329411D01*
X33517525Y-56572632D01*
X33724368Y-56779475D01*
X33967589Y-56941990D01*
X34102810Y-56998000D01*
X30032190Y-56998000D01*
X30167411Y-56941990D01*
X30410632Y-56779475D01*
X30617475Y-56572632D01*
X30779990Y-56329411D01*
X30891932Y-56059158D01*
X30949000Y-55772260D01*
X30949000Y-55479740D01*
X30891932Y-55192842D01*
X30779990Y-54922589D01*
X30617475Y-54679368D01*
X30410632Y-54472525D01*
X30167411Y-54310010D01*
X29897158Y-54198068D01*
X29610260Y-54141000D01*
X29317740Y-54141000D01*
X29030842Y-54198068D01*
X28760589Y-54310010D01*
X28517368Y-54472525D01*
X28385513Y-54604380D01*
X28363502Y-54531820D01*
X28304537Y-54421506D01*
X28225185Y-54324815D01*
X28128494Y-54245463D01*
X28018180Y-54186498D01*
X27898482Y-54150188D01*
X27774000Y-54137928D01*
X26074000Y-54137928D01*
X25949518Y-54150188D01*
X25829820Y-54186498D01*
X25719506Y-54245463D01*
X25622815Y-54324815D01*
X25543463Y-54421506D01*
X25484498Y-54531820D01*
X25448188Y-54651518D01*
X25435928Y-54776000D01*
X25435928Y-56476000D01*
X25448188Y-56600482D01*
X25484498Y-56720180D01*
X25543463Y-56830494D01*
X25622815Y-56927185D01*
X25709104Y-56998000D01*
X24282000Y-56998000D01*
X24282000Y-51016000D01*
X27263928Y-51016000D01*
X27263928Y-52616000D01*
X27276188Y-52740482D01*
X27312498Y-52860180D01*
X27371463Y-52970494D01*
X27450815Y-53067185D01*
X27547506Y-53146537D01*
X27657820Y-53205502D01*
X27777518Y-53241812D01*
X27902000Y-53254072D01*
X29502000Y-53254072D01*
X29626482Y-53241812D01*
X29746180Y-53205502D01*
X29856494Y-53146537D01*
X29953185Y-53067185D01*
X30032537Y-52970494D01*
X30091502Y-52860180D01*
X30127812Y-52740482D01*
X30128643Y-52732039D01*
X30327241Y-52930637D01*
X30562273Y-53087680D01*
X30823426Y-53195853D01*
X31100665Y-53251000D01*
X31383335Y-53251000D01*
X31660574Y-53195853D01*
X31921727Y-53087680D01*
X32156759Y-52930637D01*
X32356637Y-52730759D01*
X32512000Y-52498241D01*
X32667363Y-52730759D01*
X32867241Y-52930637D01*
X33102273Y-53087680D01*
X33363426Y-53195853D01*
X33640665Y-53251000D01*
X33923335Y-53251000D01*
X34200574Y-53195853D01*
X34461727Y-53087680D01*
X34696759Y-52930637D01*
X34896637Y-52730759D01*
X35053680Y-52495727D01*
X35058067Y-52485135D01*
X35169615Y-52671131D01*
X35358586Y-52879519D01*
X35584580Y-53047037D01*
X35838913Y-53167246D01*
X35972961Y-53207904D01*
X36195000Y-53085915D01*
X36195000Y-51943000D01*
X36175000Y-51943000D01*
X36175000Y-51689000D01*
X36195000Y-51689000D01*
X36195000Y-50546085D01*
X35972961Y-50424096D01*
X35838913Y-50464754D01*
X35584580Y-50584963D01*
X35358586Y-50752481D01*
X35169615Y-50960869D01*
X35058067Y-51146865D01*
X35053680Y-51136273D01*
X34896637Y-50901241D01*
X34696759Y-50701363D01*
X34461727Y-50544320D01*
X34200574Y-50436147D01*
X33923335Y-50381000D01*
X33640665Y-50381000D01*
X33363426Y-50436147D01*
X33102273Y-50544320D01*
X32867241Y-50701363D01*
X32667363Y-50901241D01*
X32512000Y-51133759D01*
X32356637Y-50901241D01*
X32156759Y-50701363D01*
X31921727Y-50544320D01*
X31660574Y-50436147D01*
X31383335Y-50381000D01*
X31100665Y-50381000D01*
X30823426Y-50436147D01*
X30562273Y-50544320D01*
X30327241Y-50701363D01*
X30128643Y-50899961D01*
X30127812Y-50891518D01*
X30091502Y-50771820D01*
X30032537Y-50661506D01*
X29953185Y-50564815D01*
X29856494Y-50485463D01*
X29746180Y-50426498D01*
X29626482Y-50390188D01*
X29502000Y-50377928D01*
X27902000Y-50377928D01*
X27777518Y-50390188D01*
X27657820Y-50426498D01*
X27547506Y-50485463D01*
X27450815Y-50564815D01*
X27371463Y-50661506D01*
X27312498Y-50771820D01*
X27276188Y-50891518D01*
X27263928Y-51016000D01*
X24282000Y-51016000D01*
X24282000Y-28702000D01*
X24510719Y-28702000D01*
X24515000Y-28745469D01*
X24515001Y-35516521D01*
X24510719Y-35560000D01*
X24527805Y-35733490D01*
X24578412Y-35900313D01*
X24660590Y-36054059D01*
X24743468Y-36155046D01*
X24743471Y-36155049D01*
X24771184Y-36188817D01*
X24804951Y-36216529D01*
X25759470Y-37171049D01*
X25787183Y-37204817D01*
X25820951Y-37232530D01*
X25820953Y-37232532D01*
X25849216Y-37255727D01*
X25921941Y-37315411D01*
X26075687Y-37397589D01*
X26191903Y-37432843D01*
X26242509Y-37448195D01*
X26257306Y-37449652D01*
X26372523Y-37461000D01*
X26372531Y-37461000D01*
X26416000Y-37465281D01*
X26459469Y-37461000D01*
X27567479Y-37461000D01*
X27587363Y-37490759D01*
X27787241Y-37690637D01*
X28022273Y-37847680D01*
X28283426Y-37955853D01*
X28560665Y-38011000D01*
X28843335Y-38011000D01*
X29120574Y-37955853D01*
X29381727Y-37847680D01*
X29616759Y-37690637D01*
X29816637Y-37490759D01*
X29973680Y-37255727D01*
X29978067Y-37245135D01*
X30089615Y-37431131D01*
X30278586Y-37639519D01*
X30504580Y-37807037D01*
X30758913Y-37927246D01*
X30892961Y-37967904D01*
X31115000Y-37845915D01*
X31115000Y-36703000D01*
X31095000Y-36703000D01*
X31095000Y-36449000D01*
X31115000Y-36449000D01*
X31115000Y-35306085D01*
X31369000Y-35306085D01*
X31369000Y-36449000D01*
X31389000Y-36449000D01*
X31389000Y-36703000D01*
X31369000Y-36703000D01*
X31369000Y-37845915D01*
X31591039Y-37967904D01*
X31725087Y-37927246D01*
X31979420Y-37807037D01*
X32205414Y-37639519D01*
X32394385Y-37431131D01*
X32505933Y-37245135D01*
X32510320Y-37255727D01*
X32667363Y-37490759D01*
X32867241Y-37690637D01*
X33102273Y-37847680D01*
X33363426Y-37955853D01*
X33640665Y-38011000D01*
X33923335Y-38011000D01*
X34200574Y-37955853D01*
X34461727Y-37847680D01*
X34696759Y-37690637D01*
X34896637Y-37490759D01*
X35052000Y-37258241D01*
X35207363Y-37490759D01*
X35407241Y-37690637D01*
X35642273Y-37847680D01*
X35903426Y-37955853D01*
X36180665Y-38011000D01*
X36463335Y-38011000D01*
X36740574Y-37955853D01*
X37001727Y-37847680D01*
X37236759Y-37690637D01*
X37436637Y-37490759D01*
X37592000Y-37258241D01*
X37747363Y-37490759D01*
X37947241Y-37690637D01*
X38182273Y-37847680D01*
X38443426Y-37955853D01*
X38720665Y-38011000D01*
X39003335Y-38011000D01*
X39280574Y-37955853D01*
X39541727Y-37847680D01*
X39776759Y-37690637D01*
X39976637Y-37490759D01*
X40132000Y-37258241D01*
X40287363Y-37490759D01*
X40487241Y-37690637D01*
X40722273Y-37847680D01*
X40983426Y-37955853D01*
X41260665Y-38011000D01*
X41543335Y-38011000D01*
X41820574Y-37955853D01*
X42081727Y-37847680D01*
X42316759Y-37690637D01*
X42516637Y-37490759D01*
X42672000Y-37258241D01*
X42827363Y-37490759D01*
X43027241Y-37690637D01*
X43262273Y-37847680D01*
X43523426Y-37955853D01*
X43800665Y-38011000D01*
X44083335Y-38011000D01*
X44360574Y-37955853D01*
X44621727Y-37847680D01*
X44856759Y-37690637D01*
X45056637Y-37490759D01*
X45212000Y-37258241D01*
X45367363Y-37490759D01*
X45567241Y-37690637D01*
X45802273Y-37847680D01*
X46063426Y-37955853D01*
X46340665Y-38011000D01*
X46623335Y-38011000D01*
X46900574Y-37955853D01*
X47161727Y-37847680D01*
X47396759Y-37690637D01*
X47596637Y-37490759D01*
X47752000Y-37258241D01*
X47907363Y-37490759D01*
X48107241Y-37690637D01*
X48342273Y-37847680D01*
X48603426Y-37955853D01*
X48880665Y-38011000D01*
X49163335Y-38011000D01*
X49440574Y-37955853D01*
X49701727Y-37847680D01*
X49936759Y-37690637D01*
X50136637Y-37490759D01*
X50292000Y-37258241D01*
X50447363Y-37490759D01*
X50647241Y-37690637D01*
X50882273Y-37847680D01*
X51143426Y-37955853D01*
X51420665Y-38011000D01*
X51703335Y-38011000D01*
X51980574Y-37955853D01*
X52241727Y-37847680D01*
X52476759Y-37690637D01*
X52676637Y-37490759D01*
X52832000Y-37258241D01*
X52987363Y-37490759D01*
X53187241Y-37690637D01*
X53422273Y-37847680D01*
X53683426Y-37955853D01*
X53960665Y-38011000D01*
X54243335Y-38011000D01*
X54520574Y-37955853D01*
X54781727Y-37847680D01*
X55016759Y-37690637D01*
X55216637Y-37490759D01*
X55372000Y-37258241D01*
X55527363Y-37490759D01*
X55727241Y-37690637D01*
X55962273Y-37847680D01*
X56223426Y-37955853D01*
X56500665Y-38011000D01*
X56783335Y-38011000D01*
X57060574Y-37955853D01*
X57321727Y-37847680D01*
X57556759Y-37690637D01*
X57756637Y-37490759D01*
X57912000Y-37258241D01*
X58067363Y-37490759D01*
X58267241Y-37690637D01*
X58502273Y-37847680D01*
X58763426Y-37955853D01*
X59040665Y-38011000D01*
X59323335Y-38011000D01*
X59600574Y-37955853D01*
X59861727Y-37847680D01*
X60096759Y-37690637D01*
X60296637Y-37490759D01*
X60452000Y-37258241D01*
X60607363Y-37490759D01*
X60807241Y-37690637D01*
X61042273Y-37847680D01*
X61303426Y-37955853D01*
X61580665Y-38011000D01*
X61863335Y-38011000D01*
X62140574Y-37955853D01*
X62401727Y-37847680D01*
X62636759Y-37690637D01*
X62836637Y-37490759D01*
X62992000Y-37258241D01*
X63147363Y-37490759D01*
X63347241Y-37690637D01*
X63582273Y-37847680D01*
X63843426Y-37955853D01*
X64120665Y-38011000D01*
X64403335Y-38011000D01*
X64680574Y-37955853D01*
X64941727Y-37847680D01*
X65176759Y-37690637D01*
X65376637Y-37490759D01*
X65533680Y-37255727D01*
X65641853Y-36994574D01*
X65697000Y-36717335D01*
X65697000Y-36434665D01*
X65641853Y-36157426D01*
X65533680Y-35896273D01*
X65376637Y-35661241D01*
X65176759Y-35461363D01*
X64941727Y-35304320D01*
X64680574Y-35196147D01*
X64403335Y-35141000D01*
X64120665Y-35141000D01*
X63843426Y-35196147D01*
X63582273Y-35304320D01*
X63347241Y-35461363D01*
X63147363Y-35661241D01*
X62992000Y-35893759D01*
X62836637Y-35661241D01*
X62636759Y-35461363D01*
X62401727Y-35304320D01*
X62140574Y-35196147D01*
X61863335Y-35141000D01*
X61580665Y-35141000D01*
X61303426Y-35196147D01*
X61042273Y-35304320D01*
X60807241Y-35461363D01*
X60607363Y-35661241D01*
X60452000Y-35893759D01*
X60296637Y-35661241D01*
X60096759Y-35461363D01*
X59861727Y-35304320D01*
X59600574Y-35196147D01*
X59323335Y-35141000D01*
X59040665Y-35141000D01*
X58763426Y-35196147D01*
X58502273Y-35304320D01*
X58267241Y-35461363D01*
X58067363Y-35661241D01*
X57912000Y-35893759D01*
X57756637Y-35661241D01*
X57556759Y-35461363D01*
X57321727Y-35304320D01*
X57060574Y-35196147D01*
X56783335Y-35141000D01*
X56500665Y-35141000D01*
X56223426Y-35196147D01*
X55962273Y-35304320D01*
X55727241Y-35461363D01*
X55527363Y-35661241D01*
X55372000Y-35893759D01*
X55216637Y-35661241D01*
X55016759Y-35461363D01*
X54781727Y-35304320D01*
X54520574Y-35196147D01*
X54243335Y-35141000D01*
X53960665Y-35141000D01*
X53683426Y-35196147D01*
X53422273Y-35304320D01*
X53187241Y-35461363D01*
X52987363Y-35661241D01*
X52832000Y-35893759D01*
X52676637Y-35661241D01*
X52476759Y-35461363D01*
X52241727Y-35304320D01*
X51980574Y-35196147D01*
X51703335Y-35141000D01*
X51420665Y-35141000D01*
X51143426Y-35196147D01*
X50882273Y-35304320D01*
X50647241Y-35461363D01*
X50447363Y-35661241D01*
X50292000Y-35893759D01*
X50136637Y-35661241D01*
X49936759Y-35461363D01*
X49701727Y-35304320D01*
X49440574Y-35196147D01*
X49163335Y-35141000D01*
X48880665Y-35141000D01*
X48603426Y-35196147D01*
X48342273Y-35304320D01*
X48107241Y-35461363D01*
X47907363Y-35661241D01*
X47752000Y-35893759D01*
X47596637Y-35661241D01*
X47396759Y-35461363D01*
X47161727Y-35304320D01*
X46900574Y-35196147D01*
X46623335Y-35141000D01*
X46340665Y-35141000D01*
X46063426Y-35196147D01*
X45802273Y-35304320D01*
X45567241Y-35461363D01*
X45367363Y-35661241D01*
X45212000Y-35893759D01*
X45056637Y-35661241D01*
X44856759Y-35461363D01*
X44621727Y-35304320D01*
X44360574Y-35196147D01*
X44083335Y-35141000D01*
X43800665Y-35141000D01*
X43523426Y-35196147D01*
X43262273Y-35304320D01*
X43027241Y-35461363D01*
X42827363Y-35661241D01*
X42672000Y-35893759D01*
X42516637Y-35661241D01*
X42316759Y-35461363D01*
X42081727Y-35304320D01*
X41820574Y-35196147D01*
X41543335Y-35141000D01*
X41260665Y-35141000D01*
X40983426Y-35196147D01*
X40722273Y-35304320D01*
X40487241Y-35461363D01*
X40287363Y-35661241D01*
X40132000Y-35893759D01*
X39976637Y-35661241D01*
X39776759Y-35461363D01*
X39541727Y-35304320D01*
X39280574Y-35196147D01*
X39003335Y-35141000D01*
X38720665Y-35141000D01*
X38443426Y-35196147D01*
X38182273Y-35304320D01*
X37947241Y-35461363D01*
X37747363Y-35661241D01*
X37592000Y-35893759D01*
X37436637Y-35661241D01*
X37236759Y-35461363D01*
X37001727Y-35304320D01*
X36740574Y-35196147D01*
X36463335Y-35141000D01*
X36180665Y-35141000D01*
X35903426Y-35196147D01*
X35642273Y-35304320D01*
X35407241Y-35461363D01*
X35207363Y-35661241D01*
X35052000Y-35893759D01*
X34896637Y-35661241D01*
X34696759Y-35461363D01*
X34461727Y-35304320D01*
X34200574Y-35196147D01*
X33923335Y-35141000D01*
X33640665Y-35141000D01*
X33363426Y-35196147D01*
X33102273Y-35304320D01*
X32867241Y-35461363D01*
X32667363Y-35661241D01*
X32510320Y-35896273D01*
X32505933Y-35906865D01*
X32394385Y-35720869D01*
X32205414Y-35512481D01*
X31979420Y-35344963D01*
X31725087Y-35224754D01*
X31591039Y-35184096D01*
X31369000Y-35306085D01*
X31115000Y-35306085D01*
X30892961Y-35184096D01*
X30758913Y-35224754D01*
X30504580Y-35344963D01*
X30278586Y-35512481D01*
X30089615Y-35720869D01*
X29978067Y-35906865D01*
X29973680Y-35896273D01*
X29816637Y-35661241D01*
X29616759Y-35461363D01*
X29381727Y-35304320D01*
X29120574Y-35196147D01*
X28843335Y-35141000D01*
X28560665Y-35141000D01*
X28283426Y-35196147D01*
X28022273Y-35304320D01*
X27787241Y-35461363D01*
X27587363Y-35661241D01*
X27567479Y-35691000D01*
X26782579Y-35691000D01*
X26285000Y-35193422D01*
X26285000Y-33320311D01*
X26474589Y-33446990D01*
X26744842Y-33558932D01*
X27031740Y-33616000D01*
X27324260Y-33616000D01*
X27611158Y-33558932D01*
X27881411Y-33446990D01*
X28124632Y-33284475D01*
X28331475Y-33077632D01*
X28453195Y-32895466D01*
X28522822Y-33012355D01*
X28717731Y-33228588D01*
X28951080Y-33402641D01*
X29213901Y-33527825D01*
X29361110Y-33572476D01*
X29591000Y-33451155D01*
X29591000Y-32258000D01*
X29571000Y-32258000D01*
X29571000Y-32004000D01*
X29591000Y-32004000D01*
X29591000Y-29718000D01*
X29571000Y-29718000D01*
X29571000Y-29464000D01*
X29591000Y-29464000D01*
X29591000Y-29444000D01*
X29845000Y-29444000D01*
X29845000Y-29464000D01*
X29865000Y-29464000D01*
X29865000Y-29718000D01*
X29845000Y-29718000D01*
X29845000Y-32004000D01*
X29865000Y-32004000D01*
X29865000Y-32258000D01*
X29845000Y-32258000D01*
X29845000Y-33451155D01*
X30074890Y-33572476D01*
X30222099Y-33527825D01*
X30484920Y-33402641D01*
X30718269Y-33228588D01*
X30913178Y-33012355D01*
X30982805Y-32895466D01*
X31104525Y-33077632D01*
X31311368Y-33284475D01*
X31554589Y-33446990D01*
X31824842Y-33558932D01*
X32111740Y-33616000D01*
X32404260Y-33616000D01*
X32691158Y-33558932D01*
X32961411Y-33446990D01*
X33204632Y-33284475D01*
X33411475Y-33077632D01*
X33528000Y-32903240D01*
X33644525Y-33077632D01*
X33851368Y-33284475D01*
X34094589Y-33446990D01*
X34364842Y-33558932D01*
X34651740Y-33616000D01*
X34944260Y-33616000D01*
X35231158Y-33558932D01*
X35501411Y-33446990D01*
X35744632Y-33284475D01*
X35951475Y-33077632D01*
X36068000Y-32903240D01*
X36184525Y-33077632D01*
X36391368Y-33284475D01*
X36634589Y-33446990D01*
X36904842Y-33558932D01*
X37191740Y-33616000D01*
X37484260Y-33616000D01*
X37771158Y-33558932D01*
X38041411Y-33446990D01*
X38284632Y-33284475D01*
X38491475Y-33077632D01*
X38608000Y-32903240D01*
X38724525Y-33077632D01*
X38931368Y-33284475D01*
X39174589Y-33446990D01*
X39444842Y-33558932D01*
X39731740Y-33616000D01*
X40024260Y-33616000D01*
X40311158Y-33558932D01*
X40581411Y-33446990D01*
X40824632Y-33284475D01*
X41031475Y-33077632D01*
X41148000Y-32903240D01*
X41264525Y-33077632D01*
X41471368Y-33284475D01*
X41714589Y-33446990D01*
X41984842Y-33558932D01*
X42271740Y-33616000D01*
X42564260Y-33616000D01*
X42851158Y-33558932D01*
X43121411Y-33446990D01*
X43364632Y-33284475D01*
X43571475Y-33077632D01*
X43688000Y-32903240D01*
X43804525Y-33077632D01*
X44011368Y-33284475D01*
X44254589Y-33446990D01*
X44524842Y-33558932D01*
X44811740Y-33616000D01*
X45104260Y-33616000D01*
X45391158Y-33558932D01*
X45661411Y-33446990D01*
X45904632Y-33284475D01*
X46111475Y-33077632D01*
X46228000Y-32903240D01*
X46344525Y-33077632D01*
X46551368Y-33284475D01*
X46794589Y-33446990D01*
X47064842Y-33558932D01*
X47351740Y-33616000D01*
X47644260Y-33616000D01*
X47931158Y-33558932D01*
X48201411Y-33446990D01*
X48444632Y-33284475D01*
X48651475Y-33077632D01*
X48768000Y-32903240D01*
X48884525Y-33077632D01*
X49091368Y-33284475D01*
X49334589Y-33446990D01*
X49604842Y-33558932D01*
X49891740Y-33616000D01*
X50184260Y-33616000D01*
X50471158Y-33558932D01*
X50741411Y-33446990D01*
X50984632Y-33284475D01*
X51191475Y-33077632D01*
X51308000Y-32903240D01*
X51424525Y-33077632D01*
X51631368Y-33284475D01*
X51874589Y-33446990D01*
X52144842Y-33558932D01*
X52431740Y-33616000D01*
X52724260Y-33616000D01*
X53011158Y-33558932D01*
X53281411Y-33446990D01*
X53524632Y-33284475D01*
X53731475Y-33077632D01*
X53848000Y-32903240D01*
X53964525Y-33077632D01*
X54171368Y-33284475D01*
X54414589Y-33446990D01*
X54684842Y-33558932D01*
X54971740Y-33616000D01*
X55264260Y-33616000D01*
X55551158Y-33558932D01*
X55821411Y-33446990D01*
X56064632Y-33284475D01*
X56271475Y-33077632D01*
X56393195Y-32895466D01*
X56462822Y-33012355D01*
X56657731Y-33228588D01*
X56891080Y-33402641D01*
X57153901Y-33527825D01*
X57301110Y-33572476D01*
X57531000Y-33451155D01*
X57531000Y-32258000D01*
X57785000Y-32258000D01*
X57785000Y-33451155D01*
X58014890Y-33572476D01*
X58162099Y-33527825D01*
X58424920Y-33402641D01*
X58658269Y-33228588D01*
X58853178Y-33012355D01*
X59002157Y-32762252D01*
X59097760Y-32492740D01*
X62142000Y-32492740D01*
X62142000Y-32785260D01*
X62199068Y-33072158D01*
X62311010Y-33342411D01*
X62473525Y-33585632D01*
X62680368Y-33792475D01*
X62923589Y-33954990D01*
X63193842Y-34066932D01*
X63480740Y-34124000D01*
X63773260Y-34124000D01*
X64060158Y-34066932D01*
X64330411Y-33954990D01*
X64573632Y-33792475D01*
X64705487Y-33660620D01*
X64727498Y-33733180D01*
X64786463Y-33843494D01*
X64865815Y-33940185D01*
X64962506Y-34019537D01*
X65072820Y-34078502D01*
X65192518Y-34114812D01*
X65317000Y-34127072D01*
X67017000Y-34127072D01*
X67141482Y-34114812D01*
X67261180Y-34078502D01*
X67371494Y-34019537D01*
X67468185Y-33940185D01*
X67547537Y-33843494D01*
X67606502Y-33733180D01*
X67642812Y-33613482D01*
X67655072Y-33489000D01*
X67655072Y-31789000D01*
X67642812Y-31664518D01*
X67606502Y-31544820D01*
X67547537Y-31434506D01*
X67468185Y-31337815D01*
X67371494Y-31258463D01*
X67261180Y-31199498D01*
X67141482Y-31163188D01*
X67017000Y-31150928D01*
X65317000Y-31150928D01*
X65192518Y-31163188D01*
X65072820Y-31199498D01*
X64962506Y-31258463D01*
X64865815Y-31337815D01*
X64786463Y-31434506D01*
X64727498Y-31544820D01*
X64705487Y-31617380D01*
X64573632Y-31485525D01*
X64330411Y-31323010D01*
X64060158Y-31211068D01*
X63773260Y-31154000D01*
X63480740Y-31154000D01*
X63193842Y-31211068D01*
X62923589Y-31323010D01*
X62680368Y-31485525D01*
X62473525Y-31692368D01*
X62311010Y-31935589D01*
X62199068Y-32205842D01*
X62142000Y-32492740D01*
X59097760Y-32492740D01*
X59099481Y-32487891D01*
X58978814Y-32258000D01*
X57785000Y-32258000D01*
X57531000Y-32258000D01*
X57511000Y-32258000D01*
X57511000Y-32004000D01*
X57531000Y-32004000D01*
X57531000Y-29718000D01*
X57785000Y-29718000D01*
X57785000Y-32004000D01*
X58978814Y-32004000D01*
X59099481Y-31774109D01*
X59002157Y-31499748D01*
X58853178Y-31249645D01*
X58676374Y-31053498D01*
X58752180Y-31030502D01*
X58862494Y-30971537D01*
X58959185Y-30892185D01*
X59038537Y-30795494D01*
X59097502Y-30685180D01*
X59133812Y-30565482D01*
X59146072Y-30441000D01*
X59143000Y-29876750D01*
X58984250Y-29718000D01*
X57785000Y-29718000D01*
X57531000Y-29718000D01*
X57511000Y-29718000D01*
X57511000Y-29464000D01*
X57531000Y-29464000D01*
X57531000Y-28264750D01*
X57785000Y-28264750D01*
X57785000Y-29464000D01*
X58984250Y-29464000D01*
X59143000Y-29305250D01*
X59146072Y-28741000D01*
X59133812Y-28616518D01*
X59097502Y-28496820D01*
X59038537Y-28386506D01*
X58959185Y-28289815D01*
X58862494Y-28210463D01*
X58752180Y-28151498D01*
X58632482Y-28115188D01*
X58508000Y-28102928D01*
X57943750Y-28106000D01*
X57785000Y-28264750D01*
X57531000Y-28264750D01*
X57372250Y-28106000D01*
X56808000Y-28102928D01*
X56683518Y-28115188D01*
X56563820Y-28151498D01*
X56453506Y-28210463D01*
X56356815Y-28289815D01*
X56277463Y-28386506D01*
X56218498Y-28496820D01*
X56196487Y-28569380D01*
X56064632Y-28437525D01*
X56003000Y-28396344D01*
X56003000Y-28237465D01*
X56007281Y-28193999D01*
X56003000Y-28150533D01*
X56003000Y-28150523D01*
X55990195Y-28020510D01*
X55941272Y-27859235D01*
X56086102Y-27919226D01*
X56286061Y-27959000D01*
X56489939Y-27959000D01*
X56689898Y-27919226D01*
X56878256Y-27841205D01*
X57047774Y-27727937D01*
X57191937Y-27583774D01*
X57305205Y-27414256D01*
X57383226Y-27225898D01*
X57423000Y-27025939D01*
X57423000Y-26822061D01*
X57414915Y-26781417D01*
X57531000Y-26720155D01*
X57531000Y-25527000D01*
X57785000Y-25527000D01*
X57785000Y-26720155D01*
X58014890Y-26841476D01*
X58162099Y-26796825D01*
X58346485Y-26709000D01*
X62138928Y-26709000D01*
X62138928Y-28409000D01*
X62151188Y-28533482D01*
X62187498Y-28653180D01*
X62246463Y-28763494D01*
X62325815Y-28860185D01*
X62422506Y-28939537D01*
X62532820Y-28998502D01*
X62652518Y-29034812D01*
X62777000Y-29047072D01*
X64477000Y-29047072D01*
X64601482Y-29034812D01*
X64721180Y-28998502D01*
X64831494Y-28939537D01*
X64928185Y-28860185D01*
X65007537Y-28763494D01*
X65066502Y-28653180D01*
X65090966Y-28572534D01*
X65166731Y-28656588D01*
X65400080Y-28830641D01*
X65662901Y-28955825D01*
X65810110Y-29000476D01*
X66040000Y-28879155D01*
X66040000Y-27686000D01*
X66020000Y-27686000D01*
X66020000Y-27432000D01*
X66040000Y-27432000D01*
X66040000Y-26238845D01*
X66294000Y-26238845D01*
X66294000Y-27432000D01*
X66314000Y-27432000D01*
X66314000Y-27686000D01*
X66294000Y-27686000D01*
X66294000Y-28879155D01*
X66523890Y-29000476D01*
X66671099Y-28955825D01*
X66933920Y-28830641D01*
X67167269Y-28656588D01*
X67362178Y-28440355D01*
X67431805Y-28323466D01*
X67553525Y-28505632D01*
X67760368Y-28712475D01*
X68003589Y-28874990D01*
X68273842Y-28986932D01*
X68560740Y-29044000D01*
X68853260Y-29044000D01*
X69140158Y-28986932D01*
X69410411Y-28874990D01*
X69653632Y-28712475D01*
X69860475Y-28505632D01*
X69977000Y-28331240D01*
X70093525Y-28505632D01*
X70300368Y-28712475D01*
X70543589Y-28874990D01*
X70813842Y-28986932D01*
X71100740Y-29044000D01*
X71393260Y-29044000D01*
X71680158Y-28986932D01*
X71950411Y-28874990D01*
X72193632Y-28712475D01*
X72400475Y-28505632D01*
X72562990Y-28262411D01*
X72674932Y-27992158D01*
X72732000Y-27705260D01*
X72732000Y-27412740D01*
X72674932Y-27125842D01*
X72562990Y-26855589D01*
X72400475Y-26612368D01*
X72193632Y-26405525D01*
X71950411Y-26243010D01*
X71680158Y-26131068D01*
X71393260Y-26074000D01*
X71100740Y-26074000D01*
X70813842Y-26131068D01*
X70543589Y-26243010D01*
X70300368Y-26405525D01*
X70093525Y-26612368D01*
X69977000Y-26786760D01*
X69860475Y-26612368D01*
X69653632Y-26405525D01*
X69410411Y-26243010D01*
X69140158Y-26131068D01*
X68853260Y-26074000D01*
X68560740Y-26074000D01*
X68273842Y-26131068D01*
X68003589Y-26243010D01*
X67760368Y-26405525D01*
X67553525Y-26612368D01*
X67431805Y-26794534D01*
X67362178Y-26677645D01*
X67167269Y-26461412D01*
X66933920Y-26287359D01*
X66671099Y-26162175D01*
X66523890Y-26117524D01*
X66294000Y-26238845D01*
X66040000Y-26238845D01*
X65810110Y-26117524D01*
X65662901Y-26162175D01*
X65400080Y-26287359D01*
X65166731Y-26461412D01*
X65090966Y-26545466D01*
X65066502Y-26464820D01*
X65007537Y-26354506D01*
X64928185Y-26257815D01*
X64831494Y-26178463D01*
X64721180Y-26119498D01*
X64601482Y-26083188D01*
X64477000Y-26070928D01*
X62777000Y-26070928D01*
X62652518Y-26083188D01*
X62532820Y-26119498D01*
X62422506Y-26178463D01*
X62325815Y-26257815D01*
X62246463Y-26354506D01*
X62187498Y-26464820D01*
X62151188Y-26584518D01*
X62138928Y-26709000D01*
X58346485Y-26709000D01*
X58424920Y-26671641D01*
X58658269Y-26497588D01*
X58853178Y-26281355D01*
X59002157Y-26031252D01*
X59099481Y-25756891D01*
X58978814Y-25527000D01*
X57785000Y-25527000D01*
X57531000Y-25527000D01*
X57511000Y-25527000D01*
X57511000Y-25273000D01*
X57531000Y-25273000D01*
X57531000Y-22987000D01*
X57785000Y-22987000D01*
X57785000Y-25273000D01*
X58978814Y-25273000D01*
X59099481Y-25043109D01*
X59002157Y-24768748D01*
X58853178Y-24518645D01*
X58676374Y-24322498D01*
X58752180Y-24299502D01*
X58862494Y-24240537D01*
X58959185Y-24161185D01*
X59038537Y-24064494D01*
X59097502Y-23954180D01*
X59133812Y-23834482D01*
X59146072Y-23710000D01*
X59143000Y-23145750D01*
X58984250Y-22987000D01*
X57785000Y-22987000D01*
X57531000Y-22987000D01*
X57511000Y-22987000D01*
X57511000Y-22733000D01*
X57531000Y-22733000D01*
X57531000Y-22713000D01*
X57785000Y-22713000D01*
X57785000Y-22733000D01*
X58984250Y-22733000D01*
X59143000Y-22574250D01*
X59146072Y-22010000D01*
X59133812Y-21885518D01*
X59120611Y-21842000D01*
X62042199Y-21842000D01*
X62138928Y-21938729D01*
X62138928Y-23202000D01*
X62151188Y-23326482D01*
X62187498Y-23446180D01*
X62246463Y-23556494D01*
X62325815Y-23653185D01*
X62422506Y-23732537D01*
X62532820Y-23791502D01*
X62652518Y-23827812D01*
X62777000Y-23840072D01*
X64477000Y-23840072D01*
X64601482Y-23827812D01*
X64721180Y-23791502D01*
X64831494Y-23732537D01*
X64928185Y-23653185D01*
X65007537Y-23556494D01*
X65066502Y-23446180D01*
X65088513Y-23373620D01*
X65220368Y-23505475D01*
X65463589Y-23667990D01*
X65733842Y-23779932D01*
X66020740Y-23837000D01*
X66313260Y-23837000D01*
X66600158Y-23779932D01*
X66870411Y-23667990D01*
X67113632Y-23505475D01*
X67320475Y-23298632D01*
X67437000Y-23124240D01*
X67553525Y-23298632D01*
X67760368Y-23505475D01*
X68003589Y-23667990D01*
X68273842Y-23779932D01*
X68560740Y-23837000D01*
X68853260Y-23837000D01*
X69140158Y-23779932D01*
X69410411Y-23667990D01*
X69653632Y-23505475D01*
X69860475Y-23298632D01*
X69982195Y-23116466D01*
X70051822Y-23233355D01*
X70246731Y-23449588D01*
X70480080Y-23623641D01*
X70742901Y-23748825D01*
X70890110Y-23793476D01*
X71120000Y-23672155D01*
X71120000Y-22479000D01*
X71374000Y-22479000D01*
X71374000Y-23672155D01*
X71603890Y-23793476D01*
X71751099Y-23748825D01*
X72013920Y-23623641D01*
X72247269Y-23449588D01*
X72442178Y-23233355D01*
X72591157Y-22983252D01*
X72688481Y-22708891D01*
X72567814Y-22479000D01*
X71374000Y-22479000D01*
X71120000Y-22479000D01*
X71100000Y-22479000D01*
X71100000Y-22225000D01*
X71120000Y-22225000D01*
X71120000Y-21031845D01*
X71374000Y-21031845D01*
X71374000Y-22225000D01*
X72567814Y-22225000D01*
X72688481Y-21995109D01*
X72591157Y-21720748D01*
X72442178Y-21470645D01*
X72247269Y-21254412D01*
X72013920Y-21080359D01*
X71751099Y-20955175D01*
X71603890Y-20910524D01*
X71374000Y-21031845D01*
X71120000Y-21031845D01*
X70890110Y-20910524D01*
X70742901Y-20955175D01*
X70480080Y-21080359D01*
X70246731Y-21254412D01*
X70051822Y-21470645D01*
X69982195Y-21587534D01*
X69860475Y-21405368D01*
X69653632Y-21198525D01*
X69410411Y-21036010D01*
X69140158Y-20924068D01*
X68853260Y-20867000D01*
X68560740Y-20867000D01*
X68273842Y-20924068D01*
X68003589Y-21036010D01*
X67760368Y-21198525D01*
X67553525Y-21405368D01*
X67437000Y-21579760D01*
X67320475Y-21405368D01*
X67113632Y-21198525D01*
X66870411Y-21036010D01*
X66600158Y-20924068D01*
X66313260Y-20867000D01*
X66020740Y-20867000D01*
X65733842Y-20924068D01*
X65463589Y-21036010D01*
X65220368Y-21198525D01*
X65088513Y-21330380D01*
X65066502Y-21257820D01*
X65007537Y-21147506D01*
X64928185Y-21050815D01*
X64831494Y-20971463D01*
X64721180Y-20912498D01*
X64601482Y-20876188D01*
X64477000Y-20863928D01*
X63213729Y-20863928D01*
X62920804Y-20571003D01*
X62897001Y-20541999D01*
X62781276Y-20447026D01*
X62649247Y-20376454D01*
X62505986Y-20332997D01*
X62394333Y-20322000D01*
X62394322Y-20322000D01*
X62357000Y-20318324D01*
X62319678Y-20322000D01*
X55790333Y-20322000D01*
X55753000Y-20318323D01*
X55715667Y-20322000D01*
X55604014Y-20332997D01*
X55460753Y-20376454D01*
X55328724Y-20447026D01*
X55212999Y-20541999D01*
X55189200Y-20570998D01*
X54606998Y-21153201D01*
X54578000Y-21176999D01*
X54554202Y-21205997D01*
X54554201Y-21205998D01*
X54483026Y-21292724D01*
X54412454Y-21424754D01*
X54400800Y-21463175D01*
X54371789Y-21558815D01*
X54368998Y-21568015D01*
X54368317Y-21574928D01*
X54171368Y-21706525D01*
X53964525Y-21913368D01*
X53848000Y-22087760D01*
X53731475Y-21913368D01*
X53524632Y-21706525D01*
X53281411Y-21544010D01*
X53011158Y-21432068D01*
X52724260Y-21375000D01*
X52431740Y-21375000D01*
X52144842Y-21432068D01*
X51874589Y-21544010D01*
X51631368Y-21706525D01*
X51424525Y-21913368D01*
X51308000Y-22087760D01*
X51191475Y-21913368D01*
X50984632Y-21706525D01*
X50741411Y-21544010D01*
X50471158Y-21432068D01*
X50184260Y-21375000D01*
X49891740Y-21375000D01*
X49604842Y-21432068D01*
X49334589Y-21544010D01*
X49091368Y-21706525D01*
X48884525Y-21913368D01*
X48768000Y-22087760D01*
X48651475Y-21913368D01*
X48444632Y-21706525D01*
X48201411Y-21544010D01*
X47931158Y-21432068D01*
X47644260Y-21375000D01*
X47351740Y-21375000D01*
X47064842Y-21432068D01*
X46794589Y-21544010D01*
X46551368Y-21706525D01*
X46344525Y-21913368D01*
X46228000Y-22087760D01*
X46111475Y-21913368D01*
X45904632Y-21706525D01*
X45661411Y-21544010D01*
X45391158Y-21432068D01*
X45104260Y-21375000D01*
X44811740Y-21375000D01*
X44524842Y-21432068D01*
X44254589Y-21544010D01*
X44011368Y-21706525D01*
X43804525Y-21913368D01*
X43688000Y-22087760D01*
X43571475Y-21913368D01*
X43364632Y-21706525D01*
X43121411Y-21544010D01*
X42851158Y-21432068D01*
X42564260Y-21375000D01*
X42271740Y-21375000D01*
X41984842Y-21432068D01*
X41714589Y-21544010D01*
X41471368Y-21706525D01*
X41264525Y-21913368D01*
X41148000Y-22087760D01*
X41031475Y-21913368D01*
X40824632Y-21706525D01*
X40581411Y-21544010D01*
X40311158Y-21432068D01*
X40024260Y-21375000D01*
X39731740Y-21375000D01*
X39444842Y-21432068D01*
X39174589Y-21544010D01*
X38931368Y-21706525D01*
X38724525Y-21913368D01*
X38608000Y-22087760D01*
X38491475Y-21913368D01*
X38284632Y-21706525D01*
X38041411Y-21544010D01*
X37771158Y-21432068D01*
X37484260Y-21375000D01*
X37191740Y-21375000D01*
X36904842Y-21432068D01*
X36634589Y-21544010D01*
X36391368Y-21706525D01*
X36184525Y-21913368D01*
X36068000Y-22087760D01*
X35951475Y-21913368D01*
X35744632Y-21706525D01*
X35501411Y-21544010D01*
X35231158Y-21432068D01*
X34944260Y-21375000D01*
X34651740Y-21375000D01*
X34364842Y-21432068D01*
X34094589Y-21544010D01*
X33851368Y-21706525D01*
X33644525Y-21913368D01*
X33528000Y-22087760D01*
X33411475Y-21913368D01*
X33204632Y-21706525D01*
X32961411Y-21544010D01*
X32691158Y-21432068D01*
X32404260Y-21375000D01*
X32111740Y-21375000D01*
X31824842Y-21432068D01*
X31554589Y-21544010D01*
X31311368Y-21706525D01*
X31104525Y-21913368D01*
X30982805Y-22095534D01*
X30913178Y-21978645D01*
X30718269Y-21762412D01*
X30484920Y-21588359D01*
X30222099Y-21463175D01*
X30074890Y-21418524D01*
X29845000Y-21539845D01*
X29845000Y-22733000D01*
X29865000Y-22733000D01*
X29865000Y-22987000D01*
X29845000Y-22987000D01*
X29845000Y-25273000D01*
X29865000Y-25273000D01*
X29865000Y-25527000D01*
X29845000Y-25527000D01*
X29845000Y-25547000D01*
X29591000Y-25547000D01*
X29591000Y-25527000D01*
X29571000Y-25527000D01*
X29571000Y-25273000D01*
X29591000Y-25273000D01*
X29591000Y-22987000D01*
X29571000Y-22987000D01*
X29571000Y-22733000D01*
X29591000Y-22733000D01*
X29591000Y-21539845D01*
X29361110Y-21418524D01*
X29213901Y-21463175D01*
X28951080Y-21588359D01*
X28717731Y-21762412D01*
X28522822Y-21978645D01*
X28453195Y-22095534D01*
X28331475Y-21913368D01*
X28124632Y-21706525D01*
X27881411Y-21544010D01*
X27611158Y-21432068D01*
X27324260Y-21375000D01*
X27031740Y-21375000D01*
X26744842Y-21432068D01*
X26474589Y-21544010D01*
X26231368Y-21706525D01*
X26024525Y-21913368D01*
X25862010Y-22156589D01*
X25750068Y-22426842D01*
X25693000Y-22713740D01*
X25693000Y-23006260D01*
X25750068Y-23293158D01*
X25862010Y-23563411D01*
X26024525Y-23806632D01*
X26231368Y-24013475D01*
X26405760Y-24130000D01*
X26231368Y-24246525D01*
X26024525Y-24453368D01*
X25862010Y-24696589D01*
X25750068Y-24966842D01*
X25693000Y-25253740D01*
X25693000Y-25546260D01*
X25750068Y-25833158D01*
X25862010Y-26103411D01*
X26024525Y-26346632D01*
X26231368Y-26553475D01*
X26474589Y-26715990D01*
X26581646Y-26760334D01*
X26615019Y-26801000D01*
X26459469Y-26801000D01*
X26416000Y-26796719D01*
X26372531Y-26801000D01*
X26372523Y-26801000D01*
X26257306Y-26812348D01*
X26242509Y-26813805D01*
X26215294Y-26822061D01*
X26075687Y-26864411D01*
X25921941Y-26946589D01*
X25921939Y-26946590D01*
X25921940Y-26946590D01*
X25820953Y-27029468D01*
X25820951Y-27029470D01*
X25787183Y-27057183D01*
X25759470Y-27090951D01*
X24804956Y-28045466D01*
X24771183Y-28073183D01*
X24660589Y-28207942D01*
X24578411Y-28361688D01*
X24564059Y-28409000D01*
X24527805Y-28528510D01*
X24526212Y-28544686D01*
X24515000Y-28658524D01*
X24515000Y-28658531D01*
X24510719Y-28702000D01*
X24282000Y-28702000D01*
X24282000Y-19710000D01*
X73508001Y-19710000D01*
X73508000Y-56998000D01*
G37*
%TD.AperFunction*%
M02*
