%TF.GenerationSoftware,KiCad,Pcbnew,(5.1.7)-1*%
%TF.CreationDate,2020-12-17T22:24:39+01:00*%
%TF.ProjectId,u64_rgb_led,7536345f-7267-4625-9f6c-65642e6b6963,rev?*%
%TF.SameCoordinates,Original*%
%TF.FileFunction,Legend,Bot*%
%TF.FilePolarity,Positive*%
%FSLAX46Y46*%
G04 Gerber Fmt 4.6, Leading zero omitted, Abs format (unit mm)*
G04 Created by KiCad (PCBNEW (5.1.7)-1) date 2020-12-17 22:24:39*
%MOMM*%
%LPD*%
G01*
G04 APERTURE LIST*
%ADD10C,0.100000*%
%ADD11C,0.300000*%
%ADD12C,0.120000*%
%ADD13C,0.010000*%
G04 APERTURE END LIST*
D10*
X55966000Y-45227285D02*
X55966000Y-45763000D01*
X56001714Y-45870142D01*
X56073142Y-45941571D01*
X56180285Y-45977285D01*
X56251714Y-45977285D01*
X55680285Y-45227285D02*
X55216000Y-45227285D01*
X55466000Y-45513000D01*
X55358857Y-45513000D01*
X55287428Y-45548714D01*
X55251714Y-45584428D01*
X55216000Y-45655857D01*
X55216000Y-45834428D01*
X55251714Y-45905857D01*
X55287428Y-45941571D01*
X55358857Y-45977285D01*
X55573142Y-45977285D01*
X55644571Y-45941571D01*
X55680285Y-45905857D01*
X54894571Y-45905857D02*
X54858857Y-45941571D01*
X54894571Y-45977285D01*
X54930285Y-45941571D01*
X54894571Y-45905857D01*
X54894571Y-45977285D01*
X54894571Y-45513000D02*
X54858857Y-45548714D01*
X54894571Y-45584428D01*
X54930285Y-45548714D01*
X54894571Y-45513000D01*
X54894571Y-45584428D01*
X53573142Y-45977285D02*
X54001714Y-45977285D01*
X53787428Y-45977285D02*
X53787428Y-45227285D01*
X53858857Y-45334428D01*
X53930285Y-45405857D01*
X54001714Y-45441571D01*
X53251714Y-45584428D02*
X52680285Y-45584428D01*
X52680285Y-45798714D02*
X53251714Y-45798714D01*
X51894571Y-45977285D02*
X52144571Y-45620142D01*
X52323142Y-45977285D02*
X52323142Y-45227285D01*
X52037428Y-45227285D01*
X51966000Y-45263000D01*
X51930285Y-45298714D01*
X51894571Y-45370142D01*
X51894571Y-45477285D01*
X51930285Y-45548714D01*
X51966000Y-45584428D01*
X52037428Y-45620142D01*
X52323142Y-45620142D01*
X51287428Y-45941571D02*
X51358857Y-45977285D01*
X51501714Y-45977285D01*
X51573142Y-45941571D01*
X51608857Y-45870142D01*
X51608857Y-45584428D01*
X51573142Y-45513000D01*
X51501714Y-45477285D01*
X51358857Y-45477285D01*
X51287428Y-45513000D01*
X51251714Y-45584428D01*
X51251714Y-45655857D01*
X51608857Y-45727285D01*
X50608857Y-45977285D02*
X50608857Y-45227285D01*
X50608857Y-45941571D02*
X50680285Y-45977285D01*
X50823142Y-45977285D01*
X50894571Y-45941571D01*
X50930285Y-45905857D01*
X50966000Y-45834428D01*
X50966000Y-45620142D01*
X50930285Y-45548714D01*
X50894571Y-45513000D01*
X50823142Y-45477285D01*
X50680285Y-45477285D01*
X50608857Y-45513000D01*
X50216000Y-45941571D02*
X50216000Y-45977285D01*
X50251714Y-46048714D01*
X50287428Y-46084428D01*
X49358857Y-45298714D02*
X49323142Y-45263000D01*
X49251714Y-45227285D01*
X49073142Y-45227285D01*
X49001714Y-45263000D01*
X48966000Y-45298714D01*
X48930285Y-45370142D01*
X48930285Y-45441571D01*
X48966000Y-45548714D01*
X49394571Y-45977285D01*
X48930285Y-45977285D01*
X48608857Y-45584428D02*
X48037428Y-45584428D01*
X48037428Y-45798714D02*
X48608857Y-45798714D01*
X47287428Y-45263000D02*
X47358857Y-45227285D01*
X47466000Y-45227285D01*
X47573142Y-45263000D01*
X47644571Y-45334428D01*
X47680285Y-45405857D01*
X47716000Y-45548714D01*
X47716000Y-45655857D01*
X47680285Y-45798714D01*
X47644571Y-45870142D01*
X47573142Y-45941571D01*
X47466000Y-45977285D01*
X47394571Y-45977285D01*
X47287428Y-45941571D01*
X47251714Y-45905857D01*
X47251714Y-45655857D01*
X47394571Y-45655857D01*
X46930285Y-45977285D02*
X46930285Y-45227285D01*
X46501714Y-45977285D01*
X46501714Y-45227285D01*
X46144571Y-45977285D02*
X46144571Y-45227285D01*
X45966000Y-45227285D01*
X45858857Y-45263000D01*
X45787428Y-45334428D01*
X45751714Y-45405857D01*
X45716000Y-45548714D01*
X45716000Y-45655857D01*
X45751714Y-45798714D01*
X45787428Y-45870142D01*
X45858857Y-45941571D01*
X45966000Y-45977285D01*
X46144571Y-45977285D01*
X45358857Y-45941571D02*
X45358857Y-45977285D01*
X45394571Y-46048714D01*
X45430285Y-46084428D01*
X44537428Y-45227285D02*
X44073142Y-45227285D01*
X44323142Y-45513000D01*
X44216000Y-45513000D01*
X44144571Y-45548714D01*
X44108857Y-45584428D01*
X44073142Y-45655857D01*
X44073142Y-45834428D01*
X44108857Y-45905857D01*
X44144571Y-45941571D01*
X44216000Y-45977285D01*
X44430285Y-45977285D01*
X44501714Y-45941571D01*
X44537428Y-45905857D01*
X43751714Y-45584428D02*
X43180285Y-45584428D01*
X43180285Y-45798714D02*
X43751714Y-45798714D01*
X42430285Y-45263000D02*
X42501714Y-45227285D01*
X42608857Y-45227285D01*
X42716000Y-45263000D01*
X42787428Y-45334428D01*
X42823142Y-45405857D01*
X42858857Y-45548714D01*
X42858857Y-45655857D01*
X42823142Y-45798714D01*
X42787428Y-45870142D01*
X42716000Y-45941571D01*
X42608857Y-45977285D01*
X42537428Y-45977285D01*
X42430285Y-45941571D01*
X42394571Y-45905857D01*
X42394571Y-45655857D01*
X42537428Y-45655857D01*
X42073142Y-45977285D02*
X42073142Y-45477285D01*
X42073142Y-45620142D02*
X42037428Y-45548714D01*
X42001714Y-45513000D01*
X41930285Y-45477285D01*
X41858857Y-45477285D01*
X41323142Y-45941571D02*
X41394571Y-45977285D01*
X41537428Y-45977285D01*
X41608857Y-45941571D01*
X41644571Y-45870142D01*
X41644571Y-45584428D01*
X41608857Y-45513000D01*
X41537428Y-45477285D01*
X41394571Y-45477285D01*
X41323142Y-45513000D01*
X41287428Y-45584428D01*
X41287428Y-45655857D01*
X41644571Y-45727285D01*
X40680285Y-45941571D02*
X40751714Y-45977285D01*
X40894571Y-45977285D01*
X40966000Y-45941571D01*
X41001714Y-45870142D01*
X41001714Y-45584428D01*
X40966000Y-45513000D01*
X40894571Y-45477285D01*
X40751714Y-45477285D01*
X40680285Y-45513000D01*
X40644571Y-45584428D01*
X40644571Y-45655857D01*
X41001714Y-45727285D01*
X40323142Y-45477285D02*
X40323142Y-45977285D01*
X40323142Y-45548714D02*
X40287428Y-45513000D01*
X40216000Y-45477285D01*
X40108857Y-45477285D01*
X40037428Y-45513000D01*
X40001714Y-45584428D01*
X40001714Y-45977285D01*
X39608857Y-45941571D02*
X39608857Y-45977285D01*
X39644571Y-46048714D01*
X39680285Y-46084428D01*
X38394571Y-45477285D02*
X38394571Y-45977285D01*
X38573142Y-45191571D02*
X38751714Y-45727285D01*
X38287428Y-45727285D01*
X38001714Y-45584428D02*
X37430285Y-45584428D01*
X37430285Y-45798714D02*
X38001714Y-45798714D01*
X36823142Y-45584428D02*
X36716000Y-45620142D01*
X36680285Y-45655857D01*
X36644571Y-45727285D01*
X36644571Y-45834428D01*
X36680285Y-45905857D01*
X36716000Y-45941571D01*
X36787428Y-45977285D01*
X37073142Y-45977285D01*
X37073142Y-45227285D01*
X36823142Y-45227285D01*
X36751714Y-45263000D01*
X36716000Y-45298714D01*
X36680285Y-45370142D01*
X36680285Y-45441571D01*
X36716000Y-45513000D01*
X36751714Y-45548714D01*
X36823142Y-45584428D01*
X37073142Y-45584428D01*
X35966000Y-45977285D02*
X36323142Y-45977285D01*
X36323142Y-45227285D01*
X35394571Y-45477285D02*
X35394571Y-45977285D01*
X35716000Y-45477285D02*
X35716000Y-45870142D01*
X35680285Y-45941571D01*
X35608857Y-45977285D01*
X35501714Y-45977285D01*
X35430285Y-45941571D01*
X35394571Y-45905857D01*
X34751714Y-45941571D02*
X34823142Y-45977285D01*
X34966000Y-45977285D01*
X35037428Y-45941571D01*
X35073142Y-45870142D01*
X35073142Y-45584428D01*
X35037428Y-45513000D01*
X34966000Y-45477285D01*
X34823142Y-45477285D01*
X34751714Y-45513000D01*
X34716000Y-45584428D01*
X34716000Y-45655857D01*
X35073142Y-45727285D01*
X55216000Y-46452285D02*
X55216000Y-46988000D01*
X55251714Y-47095142D01*
X55323142Y-47166571D01*
X55430285Y-47202285D01*
X55501714Y-47202285D01*
X54501714Y-46452285D02*
X54858857Y-46452285D01*
X54894571Y-46809428D01*
X54858857Y-46773714D01*
X54787428Y-46738000D01*
X54608857Y-46738000D01*
X54537428Y-46773714D01*
X54501714Y-46809428D01*
X54466000Y-46880857D01*
X54466000Y-47059428D01*
X54501714Y-47130857D01*
X54537428Y-47166571D01*
X54608857Y-47202285D01*
X54787428Y-47202285D01*
X54858857Y-47166571D01*
X54894571Y-47130857D01*
X54144571Y-47130857D02*
X54108857Y-47166571D01*
X54144571Y-47202285D01*
X54180285Y-47166571D01*
X54144571Y-47130857D01*
X54144571Y-47202285D01*
X54144571Y-46738000D02*
X54108857Y-46773714D01*
X54144571Y-46809428D01*
X54180285Y-46773714D01*
X54144571Y-46738000D01*
X54144571Y-46809428D01*
X52823142Y-47202285D02*
X53251714Y-47202285D01*
X53037428Y-47202285D02*
X53037428Y-46452285D01*
X53108857Y-46559428D01*
X53180285Y-46630857D01*
X53251714Y-46666571D01*
X52501714Y-46809428D02*
X51930285Y-46809428D01*
X51930285Y-47023714D02*
X52501714Y-47023714D01*
X51680285Y-46452285D02*
X51430285Y-47202285D01*
X51180285Y-46452285D01*
X50501714Y-47130857D02*
X50537428Y-47166571D01*
X50644571Y-47202285D01*
X50716000Y-47202285D01*
X50823142Y-47166571D01*
X50894571Y-47095142D01*
X50930285Y-47023714D01*
X50966000Y-46880857D01*
X50966000Y-46773714D01*
X50930285Y-46630857D01*
X50894571Y-46559428D01*
X50823142Y-46488000D01*
X50716000Y-46452285D01*
X50644571Y-46452285D01*
X50537428Y-46488000D01*
X50501714Y-46523714D01*
X49751714Y-47130857D02*
X49787428Y-47166571D01*
X49894571Y-47202285D01*
X49966000Y-47202285D01*
X50073142Y-47166571D01*
X50144571Y-47095142D01*
X50180285Y-47023714D01*
X50216000Y-46880857D01*
X50216000Y-46773714D01*
X50180285Y-46630857D01*
X50144571Y-46559428D01*
X50073142Y-46488000D01*
X49966000Y-46452285D01*
X49894571Y-46452285D01*
X49787428Y-46488000D01*
X49751714Y-46523714D01*
X49394571Y-47166571D02*
X49394571Y-47202285D01*
X49430285Y-47273714D01*
X49466000Y-47309428D01*
X48537428Y-46523714D02*
X48501714Y-46488000D01*
X48430285Y-46452285D01*
X48251714Y-46452285D01*
X48180285Y-46488000D01*
X48144571Y-46523714D01*
X48108857Y-46595142D01*
X48108857Y-46666571D01*
X48144571Y-46773714D01*
X48573142Y-47202285D01*
X48108857Y-47202285D01*
X47787428Y-46809428D02*
X47216000Y-46809428D01*
X47216000Y-47023714D02*
X47787428Y-47023714D01*
X46430285Y-47130857D02*
X46466000Y-47166571D01*
X46573142Y-47202285D01*
X46644571Y-47202285D01*
X46751714Y-47166571D01*
X46823142Y-47095142D01*
X46858857Y-47023714D01*
X46894571Y-46880857D01*
X46894571Y-46773714D01*
X46858857Y-46630857D01*
X46823142Y-46559428D01*
X46751714Y-46488000D01*
X46644571Y-46452285D01*
X46573142Y-46452285D01*
X46466000Y-46488000D01*
X46430285Y-46523714D01*
X45751714Y-47202285D02*
X46108857Y-47202285D01*
X46108857Y-46452285D01*
X45501714Y-47202285D02*
X45501714Y-46452285D01*
X45073142Y-47202285D02*
X45394571Y-46773714D01*
X45073142Y-46452285D02*
X45501714Y-46880857D01*
X44751714Y-47202285D02*
X44751714Y-46452285D01*
X44358857Y-47166571D02*
X44358857Y-47202285D01*
X44394571Y-47273714D01*
X44430285Y-47309428D01*
X43537428Y-46452285D02*
X43073142Y-46452285D01*
X43323142Y-46738000D01*
X43216000Y-46738000D01*
X43144571Y-46773714D01*
X43108857Y-46809428D01*
X43073142Y-46880857D01*
X43073142Y-47059428D01*
X43108857Y-47130857D01*
X43144571Y-47166571D01*
X43216000Y-47202285D01*
X43430285Y-47202285D01*
X43501714Y-47166571D01*
X43537428Y-47130857D01*
X42751714Y-46809428D02*
X42180285Y-46809428D01*
X42180285Y-47023714D02*
X42751714Y-47023714D01*
X41858857Y-47166571D02*
X41751714Y-47202285D01*
X41573142Y-47202285D01*
X41501714Y-47166571D01*
X41466000Y-47130857D01*
X41430285Y-47059428D01*
X41430285Y-46988000D01*
X41466000Y-46916571D01*
X41501714Y-46880857D01*
X41573142Y-46845142D01*
X41716000Y-46809428D01*
X41787428Y-46773714D01*
X41823142Y-46738000D01*
X41858857Y-46666571D01*
X41858857Y-46595142D01*
X41823142Y-46523714D01*
X41787428Y-46488000D01*
X41716000Y-46452285D01*
X41537428Y-46452285D01*
X41430285Y-46488000D01*
X41108857Y-47202285D02*
X41108857Y-46452285D01*
X40930285Y-46452285D01*
X40823142Y-46488000D01*
X40751714Y-46559428D01*
X40716000Y-46630857D01*
X40680285Y-46773714D01*
X40680285Y-46880857D01*
X40716000Y-47023714D01*
X40751714Y-47095142D01*
X40823142Y-47166571D01*
X40930285Y-47202285D01*
X41108857Y-47202285D01*
X40358857Y-47202285D02*
X40358857Y-46452285D01*
X39966000Y-47166571D02*
X39966000Y-47202285D01*
X40001714Y-47273714D01*
X40037428Y-47309428D01*
X38751714Y-46702285D02*
X38751714Y-47202285D01*
X38930285Y-46416571D02*
X39108857Y-46952285D01*
X38644571Y-46952285D01*
X38358857Y-46809428D02*
X37787428Y-46809428D01*
X37787428Y-47023714D02*
X38358857Y-47023714D01*
X37037428Y-46488000D02*
X37108857Y-46452285D01*
X37216000Y-46452285D01*
X37323142Y-46488000D01*
X37394571Y-46559428D01*
X37430285Y-46630857D01*
X37466000Y-46773714D01*
X37466000Y-46880857D01*
X37430285Y-47023714D01*
X37394571Y-47095142D01*
X37323142Y-47166571D01*
X37216000Y-47202285D01*
X37144571Y-47202285D01*
X37037428Y-47166571D01*
X37001714Y-47130857D01*
X37001714Y-46880857D01*
X37144571Y-46880857D01*
X36680285Y-47202285D02*
X36680285Y-46452285D01*
X36251714Y-47202285D01*
X36251714Y-46452285D01*
X35894571Y-47202285D02*
X35894571Y-46452285D01*
X35716000Y-46452285D01*
X35608857Y-46488000D01*
X35537428Y-46559428D01*
X35501714Y-46630857D01*
X35466000Y-46773714D01*
X35466000Y-46880857D01*
X35501714Y-47023714D01*
X35537428Y-47095142D01*
X35608857Y-47166571D01*
X35716000Y-47202285D01*
X35894571Y-47202285D01*
X52055285Y-47677285D02*
X52055285Y-48213000D01*
X52091000Y-48320142D01*
X52162428Y-48391571D01*
X52269571Y-48427285D01*
X52341000Y-48427285D01*
X51376714Y-47927285D02*
X51376714Y-48427285D01*
X51555285Y-47641571D02*
X51733857Y-48177285D01*
X51269571Y-48177285D01*
X50983857Y-48355857D02*
X50948142Y-48391571D01*
X50983857Y-48427285D01*
X51019571Y-48391571D01*
X50983857Y-48355857D01*
X50983857Y-48427285D01*
X50983857Y-47963000D02*
X50948142Y-47998714D01*
X50983857Y-48034428D01*
X51019571Y-47998714D01*
X50983857Y-47963000D01*
X50983857Y-48034428D01*
X49662428Y-48427285D02*
X50091000Y-48427285D01*
X49876714Y-48427285D02*
X49876714Y-47677285D01*
X49948142Y-47784428D01*
X50019571Y-47855857D01*
X50091000Y-47891571D01*
X49341000Y-48034428D02*
X48769571Y-48034428D01*
X48769571Y-48248714D02*
X49341000Y-48248714D01*
X48448142Y-48213000D02*
X48091000Y-48213000D01*
X48519571Y-48427285D02*
X48269571Y-47677285D01*
X48019571Y-48427285D01*
X47341000Y-48355857D02*
X47376714Y-48391571D01*
X47483857Y-48427285D01*
X47555285Y-48427285D01*
X47662428Y-48391571D01*
X47733857Y-48320142D01*
X47769571Y-48248714D01*
X47805285Y-48105857D01*
X47805285Y-47998714D01*
X47769571Y-47855857D01*
X47733857Y-47784428D01*
X47662428Y-47713000D01*
X47555285Y-47677285D01*
X47483857Y-47677285D01*
X47376714Y-47713000D01*
X47341000Y-47748714D01*
X47126714Y-47677285D02*
X46698142Y-47677285D01*
X46912428Y-48427285D02*
X46912428Y-47677285D01*
X45876714Y-48427285D02*
X45876714Y-47927285D01*
X45876714Y-47677285D02*
X45912428Y-47713000D01*
X45876714Y-47748714D01*
X45841000Y-47713000D01*
X45876714Y-47677285D01*
X45876714Y-47748714D01*
X45519571Y-47927285D02*
X45519571Y-48427285D01*
X45519571Y-47998714D02*
X45483857Y-47963000D01*
X45412428Y-47927285D01*
X45305285Y-47927285D01*
X45233857Y-47963000D01*
X45198142Y-48034428D01*
X45198142Y-48427285D01*
X44805285Y-48391571D02*
X44805285Y-48427285D01*
X44841000Y-48498714D01*
X44876714Y-48534428D01*
X43948142Y-47748714D02*
X43912428Y-47713000D01*
X43841000Y-47677285D01*
X43662428Y-47677285D01*
X43591000Y-47713000D01*
X43555285Y-47748714D01*
X43519571Y-47820142D01*
X43519571Y-47891571D01*
X43555285Y-47998714D01*
X43983857Y-48427285D01*
X43519571Y-48427285D01*
X43198142Y-48034428D02*
X42626714Y-48034428D01*
X42626714Y-48248714D02*
X43198142Y-48248714D01*
X42269571Y-48427285D02*
X42269571Y-47677285D01*
X41983857Y-47677285D01*
X41912428Y-47713000D01*
X41876714Y-47748714D01*
X41841000Y-47820142D01*
X41841000Y-47927285D01*
X41876714Y-47998714D01*
X41912428Y-48034428D01*
X41983857Y-48070142D01*
X42269571Y-48070142D01*
X41591000Y-47677285D02*
X41412428Y-48427285D01*
X41269571Y-47891571D01*
X41126714Y-48427285D01*
X40948142Y-47677285D01*
X40233857Y-48427285D02*
X40483857Y-48070142D01*
X40662428Y-48427285D02*
X40662428Y-47677285D01*
X40376714Y-47677285D01*
X40305285Y-47713000D01*
X40269571Y-47748714D01*
X40233857Y-47820142D01*
X40233857Y-47927285D01*
X40269571Y-47998714D01*
X40305285Y-48034428D01*
X40376714Y-48070142D01*
X40662428Y-48070142D01*
X39341000Y-48427285D02*
X39341000Y-47927285D01*
X39341000Y-47677285D02*
X39376714Y-47713000D01*
X39341000Y-47748714D01*
X39305285Y-47713000D01*
X39341000Y-47677285D01*
X39341000Y-47748714D01*
X38983857Y-47927285D02*
X38983857Y-48427285D01*
X38983857Y-47998714D02*
X38948142Y-47963000D01*
X38876714Y-47927285D01*
X38769571Y-47927285D01*
X38698142Y-47963000D01*
X38662428Y-48034428D01*
X38662428Y-48427285D01*
D11*
X58922285Y-42231571D02*
X58065142Y-42231571D01*
X58493714Y-43731571D02*
X58493714Y-42231571D01*
X57565142Y-43731571D02*
X57565142Y-42231571D01*
X56922285Y-43731571D02*
X56922285Y-42945857D01*
X56993714Y-42803000D01*
X57136571Y-42731571D01*
X57350857Y-42731571D01*
X57493714Y-42803000D01*
X57565142Y-42874428D01*
X56208000Y-43731571D02*
X56208000Y-42731571D01*
X56208000Y-42231571D02*
X56279428Y-42303000D01*
X56208000Y-42374428D01*
X56136571Y-42303000D01*
X56208000Y-42231571D01*
X56208000Y-42374428D01*
X55565142Y-43660142D02*
X55422285Y-43731571D01*
X55136571Y-43731571D01*
X54993714Y-43660142D01*
X54922285Y-43517285D01*
X54922285Y-43445857D01*
X54993714Y-43303000D01*
X55136571Y-43231571D01*
X55350857Y-43231571D01*
X55493714Y-43160142D01*
X55565142Y-43017285D01*
X55565142Y-42945857D01*
X55493714Y-42803000D01*
X55350857Y-42731571D01*
X55136571Y-42731571D01*
X54993714Y-42803000D01*
X53136571Y-43731571D02*
X53136571Y-42731571D01*
X53136571Y-42231571D02*
X53208000Y-42303000D01*
X53136571Y-42374428D01*
X53065142Y-42303000D01*
X53136571Y-42231571D01*
X53136571Y-42374428D01*
X52493714Y-43660142D02*
X52350857Y-43731571D01*
X52065142Y-43731571D01*
X51922285Y-43660142D01*
X51850857Y-43517285D01*
X51850857Y-43445857D01*
X51922285Y-43303000D01*
X52065142Y-43231571D01*
X52279428Y-43231571D01*
X52422285Y-43160142D01*
X52493714Y-43017285D01*
X52493714Y-42945857D01*
X52422285Y-42803000D01*
X52279428Y-42731571D01*
X52065142Y-42731571D01*
X51922285Y-42803000D01*
X50279428Y-42731571D02*
X49708000Y-42731571D01*
X50065142Y-42231571D02*
X50065142Y-43517285D01*
X49993714Y-43660142D01*
X49850857Y-43731571D01*
X49708000Y-43731571D01*
X49208000Y-43731571D02*
X49208000Y-42231571D01*
X48565142Y-43731571D02*
X48565142Y-42945857D01*
X48636571Y-42803000D01*
X48779428Y-42731571D01*
X48993714Y-42731571D01*
X49136571Y-42803000D01*
X49208000Y-42874428D01*
X47279428Y-43660142D02*
X47422285Y-43731571D01*
X47708000Y-43731571D01*
X47850857Y-43660142D01*
X47922285Y-43517285D01*
X47922285Y-42945857D01*
X47850857Y-42803000D01*
X47708000Y-42731571D01*
X47422285Y-42731571D01*
X47279428Y-42803000D01*
X47208000Y-42945857D01*
X47208000Y-43088714D01*
X47922285Y-43231571D01*
X45422285Y-43731571D02*
X45422285Y-42231571D01*
X45422285Y-42803000D02*
X45279428Y-42731571D01*
X44993714Y-42731571D01*
X44850857Y-42803000D01*
X44779428Y-42874428D01*
X44708000Y-43017285D01*
X44708000Y-43445857D01*
X44779428Y-43588714D01*
X44850857Y-43660142D01*
X44993714Y-43731571D01*
X45279428Y-43731571D01*
X45422285Y-43660142D01*
X43850857Y-43731571D02*
X43993714Y-43660142D01*
X44065142Y-43588714D01*
X44136571Y-43445857D01*
X44136571Y-43017285D01*
X44065142Y-42874428D01*
X43993714Y-42803000D01*
X43850857Y-42731571D01*
X43636571Y-42731571D01*
X43493714Y-42803000D01*
X43422285Y-42874428D01*
X43350857Y-43017285D01*
X43350857Y-43445857D01*
X43422285Y-43588714D01*
X43493714Y-43660142D01*
X43636571Y-43731571D01*
X43850857Y-43731571D01*
X42922285Y-42731571D02*
X42350857Y-42731571D01*
X42708000Y-42231571D02*
X42708000Y-43517285D01*
X42636571Y-43660142D01*
X42493714Y-43731571D01*
X42350857Y-43731571D01*
X42065142Y-42731571D02*
X41493714Y-42731571D01*
X41850857Y-42231571D02*
X41850857Y-43517285D01*
X41779428Y-43660142D01*
X41636571Y-43731571D01*
X41493714Y-43731571D01*
X40779428Y-43731571D02*
X40922285Y-43660142D01*
X40993714Y-43588714D01*
X41065142Y-43445857D01*
X41065142Y-43017285D01*
X40993714Y-42874428D01*
X40922285Y-42803000D01*
X40779428Y-42731571D01*
X40565142Y-42731571D01*
X40422285Y-42803000D01*
X40350857Y-42874428D01*
X40279428Y-43017285D01*
X40279428Y-43445857D01*
X40350857Y-43588714D01*
X40422285Y-43660142D01*
X40565142Y-43731571D01*
X40779428Y-43731571D01*
X39636571Y-43731571D02*
X39636571Y-42731571D01*
X39636571Y-42874428D02*
X39565142Y-42803000D01*
X39422285Y-42731571D01*
X39208000Y-42731571D01*
X39065142Y-42803000D01*
X38993714Y-42945857D01*
X38993714Y-43731571D01*
X38993714Y-42945857D02*
X38922285Y-42803000D01*
X38779428Y-42731571D01*
X38565142Y-42731571D01*
X38422285Y-42803000D01*
X38350857Y-42945857D01*
X38350857Y-43731571D01*
X36565142Y-43660142D02*
X36422285Y-43731571D01*
X36136571Y-43731571D01*
X35993714Y-43660142D01*
X35922285Y-43517285D01*
X35922285Y-43445857D01*
X35993714Y-43303000D01*
X36136571Y-43231571D01*
X36350857Y-43231571D01*
X36493714Y-43160142D01*
X36565142Y-43017285D01*
X36565142Y-42945857D01*
X36493714Y-42803000D01*
X36350857Y-42731571D01*
X36136571Y-42731571D01*
X35993714Y-42803000D01*
X35279428Y-43731571D02*
X35279428Y-42731571D01*
X35279428Y-42231571D02*
X35350857Y-42303000D01*
X35279428Y-42374428D01*
X35208000Y-42303000D01*
X35279428Y-42231571D01*
X35279428Y-42374428D01*
X33922285Y-43731571D02*
X33922285Y-42231571D01*
X33922285Y-43660142D02*
X34065142Y-43731571D01*
X34350857Y-43731571D01*
X34493714Y-43660142D01*
X34565142Y-43588714D01*
X34636571Y-43445857D01*
X34636571Y-43017285D01*
X34565142Y-42874428D01*
X34493714Y-42803000D01*
X34350857Y-42731571D01*
X34065142Y-42731571D01*
X33922285Y-42803000D01*
X32636571Y-43660142D02*
X32779428Y-43731571D01*
X33065142Y-43731571D01*
X33208000Y-43660142D01*
X33279428Y-43517285D01*
X33279428Y-42945857D01*
X33208000Y-42803000D01*
X33065142Y-42731571D01*
X32779428Y-42731571D01*
X32636571Y-42803000D01*
X32565142Y-42945857D01*
X32565142Y-43088714D01*
X33279428Y-43231571D01*
X31922285Y-43588714D02*
X31850857Y-43660142D01*
X31922285Y-43731571D01*
X31993714Y-43660142D01*
X31922285Y-43588714D01*
X31922285Y-43731571D01*
X31208000Y-43588714D02*
X31136571Y-43660142D01*
X31208000Y-43731571D01*
X31279428Y-43660142D01*
X31208000Y-43588714D01*
X31208000Y-43731571D01*
D12*
X58988000Y-33461000D02*
X58988000Y-30861000D01*
X58988000Y-33461000D02*
X25848000Y-33461000D01*
X25848000Y-33461000D02*
X25848000Y-28261000D01*
X56388000Y-28261000D02*
X25848000Y-28261000D01*
X56388000Y-30861000D02*
X56388000Y-28261000D01*
X58988000Y-30861000D02*
X56388000Y-30861000D01*
X58988000Y-28261000D02*
X57658000Y-28261000D01*
X58988000Y-29591000D02*
X58988000Y-28261000D01*
D13*
G36*
X62460188Y-43190596D02*
G01*
X62205845Y-43197380D01*
X62002648Y-43207766D01*
X61838251Y-43224220D01*
X61700309Y-43249207D01*
X61576478Y-43285196D01*
X61454413Y-43334651D01*
X61321769Y-43400039D01*
X61267199Y-43428947D01*
X61040780Y-43576748D01*
X60826924Y-43766027D01*
X60632897Y-43986012D01*
X60465965Y-44225930D01*
X60333394Y-44475009D01*
X60242450Y-44722476D01*
X60200400Y-44957558D01*
X60198377Y-45013562D01*
X60198000Y-45116750D01*
X61634688Y-45116742D01*
X63071375Y-45116735D01*
X63062313Y-47283680D01*
X63061036Y-47650588D01*
X63060317Y-48000017D01*
X63060137Y-48326591D01*
X63060474Y-48624939D01*
X63061308Y-48889685D01*
X63062618Y-49115457D01*
X63064385Y-49296880D01*
X63066588Y-49428581D01*
X63069205Y-49505186D01*
X63070856Y-49522062D01*
X63088460Y-49593500D01*
X65556418Y-49588418D01*
X65949405Y-49587448D01*
X66325912Y-49586206D01*
X66680823Y-49584729D01*
X67009024Y-49583051D01*
X67305399Y-49581210D01*
X67564834Y-49579240D01*
X67782213Y-49577177D01*
X67952421Y-49575057D01*
X68070345Y-49572916D01*
X68130867Y-49570790D01*
X68135500Y-49570385D01*
X68218322Y-49557458D01*
X68340429Y-49534524D01*
X68479241Y-49505892D01*
X68520034Y-49496998D01*
X69022220Y-49354104D01*
X69501393Y-49154340D01*
X69952827Y-48901479D01*
X70371797Y-48599291D01*
X70753577Y-48251549D01*
X71093442Y-47862025D01*
X71386667Y-47434490D01*
X71597310Y-47040615D01*
X71793303Y-46562749D01*
X71927820Y-46092114D01*
X72001877Y-45624668D01*
X72017122Y-45370750D01*
X72024875Y-45069125D01*
X70905688Y-45060781D01*
X70597874Y-45058929D01*
X70348368Y-45058520D01*
X70151991Y-45059702D01*
X70003564Y-45062621D01*
X69897910Y-45067423D01*
X69829848Y-45074257D01*
X69794201Y-45083268D01*
X69785520Y-45092531D01*
X69774885Y-45221541D01*
X69751081Y-45385929D01*
X69718725Y-45560115D01*
X69682429Y-45718517D01*
X69656301Y-45808875D01*
X69542904Y-46091207D01*
X69397400Y-46341744D01*
X69208341Y-46578280D01*
X69069892Y-46720250D01*
X68783944Y-46954501D01*
X68463716Y-47136954D01*
X68214875Y-47236072D01*
X67960875Y-47321770D01*
X66651188Y-47332428D01*
X65341500Y-47343085D01*
X65341500Y-45085000D01*
X63087250Y-45085000D01*
X63087250Y-43177778D01*
X62460188Y-43190596D01*
G37*
X62460188Y-43190596D02*
X62205845Y-43197380D01*
X62002648Y-43207766D01*
X61838251Y-43224220D01*
X61700309Y-43249207D01*
X61576478Y-43285196D01*
X61454413Y-43334651D01*
X61321769Y-43400039D01*
X61267199Y-43428947D01*
X61040780Y-43576748D01*
X60826924Y-43766027D01*
X60632897Y-43986012D01*
X60465965Y-44225930D01*
X60333394Y-44475009D01*
X60242450Y-44722476D01*
X60200400Y-44957558D01*
X60198377Y-45013562D01*
X60198000Y-45116750D01*
X61634688Y-45116742D01*
X63071375Y-45116735D01*
X63062313Y-47283680D01*
X63061036Y-47650588D01*
X63060317Y-48000017D01*
X63060137Y-48326591D01*
X63060474Y-48624939D01*
X63061308Y-48889685D01*
X63062618Y-49115457D01*
X63064385Y-49296880D01*
X63066588Y-49428581D01*
X63069205Y-49505186D01*
X63070856Y-49522062D01*
X63088460Y-49593500D01*
X65556418Y-49588418D01*
X65949405Y-49587448D01*
X66325912Y-49586206D01*
X66680823Y-49584729D01*
X67009024Y-49583051D01*
X67305399Y-49581210D01*
X67564834Y-49579240D01*
X67782213Y-49577177D01*
X67952421Y-49575057D01*
X68070345Y-49572916D01*
X68130867Y-49570790D01*
X68135500Y-49570385D01*
X68218322Y-49557458D01*
X68340429Y-49534524D01*
X68479241Y-49505892D01*
X68520034Y-49496998D01*
X69022220Y-49354104D01*
X69501393Y-49154340D01*
X69952827Y-48901479D01*
X70371797Y-48599291D01*
X70753577Y-48251549D01*
X71093442Y-47862025D01*
X71386667Y-47434490D01*
X71597310Y-47040615D01*
X71793303Y-46562749D01*
X71927820Y-46092114D01*
X72001877Y-45624668D01*
X72017122Y-45370750D01*
X72024875Y-45069125D01*
X70905688Y-45060781D01*
X70597874Y-45058929D01*
X70348368Y-45058520D01*
X70151991Y-45059702D01*
X70003564Y-45062621D01*
X69897910Y-45067423D01*
X69829848Y-45074257D01*
X69794201Y-45083268D01*
X69785520Y-45092531D01*
X69774885Y-45221541D01*
X69751081Y-45385929D01*
X69718725Y-45560115D01*
X69682429Y-45718517D01*
X69656301Y-45808875D01*
X69542904Y-46091207D01*
X69397400Y-46341744D01*
X69208341Y-46578280D01*
X69069892Y-46720250D01*
X68783944Y-46954501D01*
X68463716Y-47136954D01*
X68214875Y-47236072D01*
X67960875Y-47321770D01*
X66651188Y-47332428D01*
X65341500Y-47343085D01*
X65341500Y-45085000D01*
X63087250Y-45085000D01*
X63087250Y-43177778D01*
X62460188Y-43190596D01*
G36*
X69761361Y-44538714D02*
G01*
X69752096Y-44761192D01*
X69920111Y-44774425D01*
X70008908Y-44778679D01*
X70149686Y-44782144D01*
X70330933Y-44784805D01*
X70541134Y-44786652D01*
X70768777Y-44787669D01*
X71002347Y-44787845D01*
X71230331Y-44787167D01*
X71441215Y-44785621D01*
X71623486Y-44783195D01*
X71765630Y-44779875D01*
X71842313Y-44776592D01*
X72040750Y-44764469D01*
X72044493Y-44662797D01*
X72048629Y-44552978D01*
X72052430Y-44454914D01*
X72049164Y-44378857D01*
X72035584Y-44336006D01*
X72033861Y-44334626D01*
X71997881Y-44331297D01*
X71905753Y-44328129D01*
X71764827Y-44325224D01*
X71582456Y-44322689D01*
X71365989Y-44320626D01*
X71122780Y-44319141D01*
X70890861Y-44318391D01*
X69770625Y-44316235D01*
X69761361Y-44538714D01*
G37*
X69761361Y-44538714D02*
X69752096Y-44761192D01*
X69920111Y-44774425D01*
X70008908Y-44778679D01*
X70149686Y-44782144D01*
X70330933Y-44784805D01*
X70541134Y-44786652D01*
X70768777Y-44787669D01*
X71002347Y-44787845D01*
X71230331Y-44787167D01*
X71441215Y-44785621D01*
X71623486Y-44783195D01*
X71765630Y-44779875D01*
X71842313Y-44776592D01*
X72040750Y-44764469D01*
X72044493Y-44662797D01*
X72048629Y-44552978D01*
X72052430Y-44454914D01*
X72049164Y-44378857D01*
X72035584Y-44336006D01*
X72033861Y-44334626D01*
X71997881Y-44331297D01*
X71905753Y-44328129D01*
X71764827Y-44325224D01*
X71582456Y-44322689D01*
X71365989Y-44320626D01*
X71122780Y-44319141D01*
X70890861Y-44318391D01*
X69770625Y-44316235D01*
X69761361Y-44538714D01*
G36*
X70900700Y-43567764D02*
G01*
X70641743Y-43570327D01*
X70403441Y-43573522D01*
X70193110Y-43577187D01*
X70018065Y-43581159D01*
X69885619Y-43585276D01*
X69803087Y-43589374D01*
X69777619Y-43592750D01*
X69762315Y-43639545D01*
X69750872Y-43726492D01*
X69744478Y-43830301D01*
X69744321Y-43927679D01*
X69751589Y-43995336D01*
X69756422Y-44008210D01*
X69773571Y-44020629D01*
X69812089Y-44030790D01*
X69877860Y-44038967D01*
X69976772Y-44045431D01*
X70114712Y-44050457D01*
X70297565Y-44054316D01*
X70531218Y-44057283D01*
X70821558Y-44059628D01*
X70872776Y-44059959D01*
X71130663Y-44060868D01*
X71369062Y-44060349D01*
X71580355Y-44058522D01*
X71756921Y-44055509D01*
X71891141Y-44051433D01*
X71975396Y-44046414D01*
X72001487Y-44041948D01*
X72031037Y-43993415D01*
X72051127Y-43904511D01*
X72059548Y-43797951D01*
X72054088Y-43696449D01*
X72040603Y-43639988D01*
X72009680Y-43558653D01*
X70900700Y-43567764D01*
G37*
X70900700Y-43567764D02*
X70641743Y-43570327D01*
X70403441Y-43573522D01*
X70193110Y-43577187D01*
X70018065Y-43581159D01*
X69885619Y-43585276D01*
X69803087Y-43589374D01*
X69777619Y-43592750D01*
X69762315Y-43639545D01*
X69750872Y-43726492D01*
X69744478Y-43830301D01*
X69744321Y-43927679D01*
X69751589Y-43995336D01*
X69756422Y-44008210D01*
X69773571Y-44020629D01*
X69812089Y-44030790D01*
X69877860Y-44038967D01*
X69976772Y-44045431D01*
X70114712Y-44050457D01*
X70297565Y-44054316D01*
X70531218Y-44057283D01*
X70821558Y-44059628D01*
X70872776Y-44059959D01*
X71130663Y-44060868D01*
X71369062Y-44060349D01*
X71580355Y-44058522D01*
X71756921Y-44055509D01*
X71891141Y-44051433D01*
X71975396Y-44046414D01*
X72001487Y-44041948D01*
X72031037Y-43993415D01*
X72051127Y-43904511D01*
X72059548Y-43797951D01*
X72054088Y-43696449D01*
X72040603Y-43639988D01*
X72009680Y-43558653D01*
X70900700Y-43567764D01*
G36*
X71289273Y-42787533D02*
G01*
X71005460Y-42789842D01*
X70905095Y-42790572D01*
X70646823Y-42793011D01*
X70408738Y-42796579D01*
X70198287Y-42801064D01*
X70022914Y-42806252D01*
X69890065Y-42811929D01*
X69807185Y-42817881D01*
X69781748Y-42822802D01*
X69768102Y-42865080D01*
X69756254Y-42951947D01*
X69748842Y-43063144D01*
X69748529Y-43193278D01*
X69760644Y-43271153D01*
X69784817Y-43305959D01*
X69826918Y-43312833D01*
X69923440Y-43318773D01*
X70065310Y-43323760D01*
X70243457Y-43327775D01*
X70448808Y-43330797D01*
X70672291Y-43332808D01*
X70904833Y-43333786D01*
X71137363Y-43333712D01*
X71360807Y-43332567D01*
X71566094Y-43330331D01*
X71744150Y-43326984D01*
X71885905Y-43322506D01*
X71982285Y-43316878D01*
X72022692Y-43310830D01*
X72056404Y-43288630D01*
X72073599Y-43245998D01*
X72078062Y-43166910D01*
X72075832Y-43085945D01*
X72073880Y-43006802D01*
X72071087Y-42942703D01*
X72061377Y-42892115D01*
X72038673Y-42853506D01*
X71996899Y-42825342D01*
X71929976Y-42806089D01*
X71831829Y-42794215D01*
X71696381Y-42788186D01*
X71517555Y-42786470D01*
X71289273Y-42787533D01*
G37*
X71289273Y-42787533D02*
X71005460Y-42789842D01*
X70905095Y-42790572D01*
X70646823Y-42793011D01*
X70408738Y-42796579D01*
X70198287Y-42801064D01*
X70022914Y-42806252D01*
X69890065Y-42811929D01*
X69807185Y-42817881D01*
X69781748Y-42822802D01*
X69768102Y-42865080D01*
X69756254Y-42951947D01*
X69748842Y-43063144D01*
X69748529Y-43193278D01*
X69760644Y-43271153D01*
X69784817Y-43305959D01*
X69826918Y-43312833D01*
X69923440Y-43318773D01*
X70065310Y-43323760D01*
X70243457Y-43327775D01*
X70448808Y-43330797D01*
X70672291Y-43332808D01*
X70904833Y-43333786D01*
X71137363Y-43333712D01*
X71360807Y-43332567D01*
X71566094Y-43330331D01*
X71744150Y-43326984D01*
X71885905Y-43322506D01*
X71982285Y-43316878D01*
X72022692Y-43310830D01*
X72056404Y-43288630D01*
X72073599Y-43245998D01*
X72078062Y-43166910D01*
X72075832Y-43085945D01*
X72073880Y-43006802D01*
X72071087Y-42942703D01*
X72061377Y-42892115D01*
X72038673Y-42853506D01*
X71996899Y-42825342D01*
X71929976Y-42806089D01*
X71831829Y-42794215D01*
X71696381Y-42788186D01*
X71517555Y-42786470D01*
X71289273Y-42787533D01*
G36*
X63055515Y-39758937D02*
G01*
X63055812Y-40031598D01*
X63056052Y-40284999D01*
X63056229Y-40511958D01*
X63056341Y-40705292D01*
X63056382Y-40857817D01*
X63056349Y-40962352D01*
X63056239Y-41011713D01*
X63056213Y-41014003D01*
X63044724Y-41023873D01*
X63007499Y-41031914D01*
X62939829Y-41038233D01*
X62837008Y-41042933D01*
X62694329Y-41046119D01*
X62507083Y-41047894D01*
X62270564Y-41048364D01*
X61980064Y-41047631D01*
X61630876Y-41045802D01*
X61623045Y-41045753D01*
X60190589Y-41036875D01*
X60208994Y-41211500D01*
X60268256Y-41495075D01*
X60382238Y-41779935D01*
X60543470Y-42054516D01*
X60744485Y-42307261D01*
X60977813Y-42526607D01*
X61130123Y-42637316D01*
X61304632Y-42740518D01*
X61480538Y-42820425D01*
X61669001Y-42879492D01*
X61881183Y-42920169D01*
X62128246Y-42944911D01*
X62421351Y-42956170D01*
X62587188Y-42957510D01*
X63087250Y-42957750D01*
X63087250Y-41052750D01*
X65341500Y-41052750D01*
X65341500Y-38544500D01*
X63054103Y-38544500D01*
X63055515Y-39758937D01*
G37*
X63055515Y-39758937D02*
X63055812Y-40031598D01*
X63056052Y-40284999D01*
X63056229Y-40511958D01*
X63056341Y-40705292D01*
X63056382Y-40857817D01*
X63056349Y-40962352D01*
X63056239Y-41011713D01*
X63056213Y-41014003D01*
X63044724Y-41023873D01*
X63007499Y-41031914D01*
X62939829Y-41038233D01*
X62837008Y-41042933D01*
X62694329Y-41046119D01*
X62507083Y-41047894D01*
X62270564Y-41048364D01*
X61980064Y-41047631D01*
X61630876Y-41045802D01*
X61623045Y-41045753D01*
X60190589Y-41036875D01*
X60208994Y-41211500D01*
X60268256Y-41495075D01*
X60382238Y-41779935D01*
X60543470Y-42054516D01*
X60744485Y-42307261D01*
X60977813Y-42526607D01*
X61130123Y-42637316D01*
X61304632Y-42740518D01*
X61480538Y-42820425D01*
X61669001Y-42879492D01*
X61881183Y-42920169D01*
X62128246Y-42944911D01*
X62421351Y-42956170D01*
X62587188Y-42957510D01*
X63087250Y-42957750D01*
X63087250Y-41052750D01*
X65341500Y-41052750D01*
X65341500Y-38544500D01*
X63054103Y-38544500D01*
X63055515Y-39758937D01*
G36*
X69691615Y-42569564D02*
G01*
X69691250Y-42576750D01*
X69715658Y-42607279D01*
X69724874Y-42608500D01*
X69743837Y-42589048D01*
X69738875Y-42576750D01*
X69710345Y-42546461D01*
X69705252Y-42545000D01*
X69691615Y-42569564D01*
G37*
X69691615Y-42569564D02*
X69691250Y-42576750D01*
X69715658Y-42607279D01*
X69724874Y-42608500D01*
X69743837Y-42589048D01*
X69738875Y-42576750D01*
X69710345Y-42546461D01*
X69705252Y-42545000D01*
X69691615Y-42569564D01*
G36*
X70676901Y-42069781D02*
G01*
X70438647Y-42071278D01*
X70226711Y-42073552D01*
X70049015Y-42076482D01*
X69913483Y-42079943D01*
X69828037Y-42083814D01*
X69802375Y-42086673D01*
X69768111Y-42103347D01*
X69749350Y-42140147D01*
X69742086Y-42212175D01*
X69741987Y-42314319D01*
X69746637Y-42431451D01*
X69759005Y-42500322D01*
X69783204Y-42536069D01*
X69805487Y-42548060D01*
X69857909Y-42556189D01*
X69962515Y-42562709D01*
X70110363Y-42567672D01*
X70292510Y-42571129D01*
X70500016Y-42573134D01*
X70723936Y-42573739D01*
X70955330Y-42572996D01*
X71185256Y-42570957D01*
X71404769Y-42567674D01*
X71604930Y-42563201D01*
X71776795Y-42557588D01*
X71911422Y-42550890D01*
X71999870Y-42543157D01*
X72032887Y-42535028D01*
X72052928Y-42475717D01*
X72063698Y-42379557D01*
X72064996Y-42270926D01*
X72056619Y-42174200D01*
X72038367Y-42113760D01*
X72036395Y-42111126D01*
X72014700Y-42099212D01*
X71967664Y-42089639D01*
X71889600Y-42082192D01*
X71774823Y-42076652D01*
X71617649Y-42072806D01*
X71412391Y-42070435D01*
X71153364Y-42069325D01*
X70933550Y-42069183D01*
X70676901Y-42069781D01*
G37*
X70676901Y-42069781D02*
X70438647Y-42071278D01*
X70226711Y-42073552D01*
X70049015Y-42076482D01*
X69913483Y-42079943D01*
X69828037Y-42083814D01*
X69802375Y-42086673D01*
X69768111Y-42103347D01*
X69749350Y-42140147D01*
X69742086Y-42212175D01*
X69741987Y-42314319D01*
X69746637Y-42431451D01*
X69759005Y-42500322D01*
X69783204Y-42536069D01*
X69805487Y-42548060D01*
X69857909Y-42556189D01*
X69962515Y-42562709D01*
X70110363Y-42567672D01*
X70292510Y-42571129D01*
X70500016Y-42573134D01*
X70723936Y-42573739D01*
X70955330Y-42572996D01*
X71185256Y-42570957D01*
X71404769Y-42567674D01*
X71604930Y-42563201D01*
X71776795Y-42557588D01*
X71911422Y-42550890D01*
X71999870Y-42543157D01*
X72032887Y-42535028D01*
X72052928Y-42475717D01*
X72063698Y-42379557D01*
X72064996Y-42270926D01*
X72056619Y-42174200D01*
X72038367Y-42113760D01*
X72036395Y-42111126D01*
X72014700Y-42099212D01*
X71967664Y-42089639D01*
X71889600Y-42082192D01*
X71774823Y-42076652D01*
X71617649Y-42072806D01*
X71412391Y-42070435D01*
X71153364Y-42069325D01*
X70933550Y-42069183D01*
X70676901Y-42069781D01*
G36*
X69741945Y-41532092D02*
G01*
X69746253Y-41653083D01*
X69754808Y-41750744D01*
X69765881Y-41806375D01*
X69767631Y-41809904D01*
X69804834Y-41820327D01*
X69896647Y-41829136D01*
X70034202Y-41836337D01*
X70208629Y-41841937D01*
X70411060Y-41845940D01*
X70632626Y-41848354D01*
X70864457Y-41849183D01*
X71097686Y-41848435D01*
X71323442Y-41846114D01*
X71532857Y-41842226D01*
X71717063Y-41836778D01*
X71867189Y-41829775D01*
X71974368Y-41821223D01*
X72029730Y-41811129D01*
X72034400Y-41808400D01*
X72055914Y-41754993D01*
X72068641Y-41660727D01*
X72071638Y-41547754D01*
X72063963Y-41438229D01*
X72052688Y-41378948D01*
X72033742Y-41308271D01*
X70886309Y-41299573D01*
X69738875Y-41290875D01*
X69741945Y-41532092D01*
G37*
X69741945Y-41532092D02*
X69746253Y-41653083D01*
X69754808Y-41750744D01*
X69765881Y-41806375D01*
X69767631Y-41809904D01*
X69804834Y-41820327D01*
X69896647Y-41829136D01*
X70034202Y-41836337D01*
X70208629Y-41841937D01*
X70411060Y-41845940D01*
X70632626Y-41848354D01*
X70864457Y-41849183D01*
X71097686Y-41848435D01*
X71323442Y-41846114D01*
X71532857Y-41842226D01*
X71717063Y-41836778D01*
X71867189Y-41829775D01*
X71974368Y-41821223D01*
X72029730Y-41811129D01*
X72034400Y-41808400D01*
X72055914Y-41754993D01*
X72068641Y-41660727D01*
X72071638Y-41547754D01*
X72063963Y-41438229D01*
X72052688Y-41378948D01*
X72033742Y-41308271D01*
X70886309Y-41299573D01*
X69738875Y-41290875D01*
X69741945Y-41532092D01*
G36*
X71834375Y-38568918D02*
G01*
X71503540Y-38614632D01*
X71180805Y-38718218D01*
X70873863Y-38874049D01*
X70590404Y-39076497D01*
X70338120Y-39319935D01*
X70124702Y-39598736D01*
X69957840Y-39907273D01*
X69936647Y-39957375D01*
X69887590Y-40102891D01*
X69841880Y-40283076D01*
X69803076Y-40478123D01*
X69774736Y-40668226D01*
X69760417Y-40833580D01*
X69761331Y-40933365D01*
X69771414Y-41053712D01*
X70894257Y-41061168D01*
X71226625Y-41062472D01*
X71503874Y-41061636D01*
X71724361Y-41058694D01*
X71886440Y-41053682D01*
X71988468Y-41046635D01*
X72028801Y-41037589D01*
X72029310Y-41036787D01*
X72031821Y-40998912D01*
X72033733Y-40904630D01*
X72035024Y-40761031D01*
X72035673Y-40575206D01*
X72035657Y-40354246D01*
X72034955Y-40105240D01*
X72033545Y-39835279D01*
X72033198Y-39782662D01*
X72024875Y-38560375D01*
X71834375Y-38568918D01*
G37*
X71834375Y-38568918D02*
X71503540Y-38614632D01*
X71180805Y-38718218D01*
X70873863Y-38874049D01*
X70590404Y-39076497D01*
X70338120Y-39319935D01*
X70124702Y-39598736D01*
X69957840Y-39907273D01*
X69936647Y-39957375D01*
X69887590Y-40102891D01*
X69841880Y-40283076D01*
X69803076Y-40478123D01*
X69774736Y-40668226D01*
X69760417Y-40833580D01*
X69761331Y-40933365D01*
X69771414Y-41053712D01*
X70894257Y-41061168D01*
X71226625Y-41062472D01*
X71503874Y-41061636D01*
X71724361Y-41058694D01*
X71886440Y-41053682D01*
X71988468Y-41046635D01*
X72028801Y-41037589D01*
X72029310Y-41036787D01*
X72031821Y-40998912D01*
X72033733Y-40904630D01*
X72035024Y-40761031D01*
X72035673Y-40575206D01*
X72035657Y-40354246D01*
X72034955Y-40105240D01*
X72033545Y-39835279D01*
X72033198Y-39782662D01*
X72024875Y-38560375D01*
X71834375Y-38568918D01*
D10*
X59787285Y-30103000D02*
X60323000Y-30103000D01*
X60430142Y-30067285D01*
X60501571Y-29995857D01*
X60537285Y-29888714D01*
X60537285Y-29817285D01*
X60537285Y-30853000D02*
X60537285Y-30424428D01*
X60537285Y-30638714D02*
X59787285Y-30638714D01*
X59894428Y-30567285D01*
X59965857Y-30495857D01*
X60001571Y-30424428D01*
X58947000Y-34006285D02*
X58947000Y-34613428D01*
X58911285Y-34684857D01*
X58875571Y-34720571D01*
X58804142Y-34756285D01*
X58661285Y-34756285D01*
X58589857Y-34720571D01*
X58554142Y-34684857D01*
X58518428Y-34613428D01*
X58518428Y-34006285D01*
X58197000Y-34720571D02*
X58089857Y-34756285D01*
X57911285Y-34756285D01*
X57839857Y-34720571D01*
X57804142Y-34684857D01*
X57768428Y-34613428D01*
X57768428Y-34542000D01*
X57804142Y-34470571D01*
X57839857Y-34434857D01*
X57911285Y-34399142D01*
X58054142Y-34363428D01*
X58125571Y-34327714D01*
X58161285Y-34292000D01*
X58197000Y-34220571D01*
X58197000Y-34149142D01*
X58161285Y-34077714D01*
X58125571Y-34042000D01*
X58054142Y-34006285D01*
X57875571Y-34006285D01*
X57768428Y-34042000D01*
X57447000Y-34363428D02*
X57197000Y-34363428D01*
X57089857Y-34756285D02*
X57447000Y-34756285D01*
X57447000Y-34006285D01*
X57089857Y-34006285D01*
X56339857Y-34756285D02*
X56589857Y-34399142D01*
X56768428Y-34756285D02*
X56768428Y-34006285D01*
X56482714Y-34006285D01*
X56411285Y-34042000D01*
X56375571Y-34077714D01*
X56339857Y-34149142D01*
X56339857Y-34256285D01*
X56375571Y-34327714D01*
X56411285Y-34363428D01*
X56482714Y-34399142D01*
X56768428Y-34399142D01*
X56018428Y-34756285D02*
X56018428Y-34006285D01*
X55732714Y-34006285D01*
X55661285Y-34042000D01*
X55625571Y-34077714D01*
X55589857Y-34149142D01*
X55589857Y-34256285D01*
X55625571Y-34327714D01*
X55661285Y-34363428D01*
X55732714Y-34399142D01*
X56018428Y-34399142D01*
X55125571Y-34006285D02*
X54982714Y-34006285D01*
X54911285Y-34042000D01*
X54839857Y-34113428D01*
X54804142Y-34256285D01*
X54804142Y-34506285D01*
X54839857Y-34649142D01*
X54911285Y-34720571D01*
X54982714Y-34756285D01*
X55125571Y-34756285D01*
X55197000Y-34720571D01*
X55268428Y-34649142D01*
X55304142Y-34506285D01*
X55304142Y-34256285D01*
X55268428Y-34113428D01*
X55197000Y-34042000D01*
X55125571Y-34006285D01*
X54054142Y-34756285D02*
X54304142Y-34399142D01*
X54482714Y-34756285D02*
X54482714Y-34006285D01*
X54197000Y-34006285D01*
X54125571Y-34042000D01*
X54089857Y-34077714D01*
X54054142Y-34149142D01*
X54054142Y-34256285D01*
X54089857Y-34327714D01*
X54125571Y-34363428D01*
X54197000Y-34399142D01*
X54482714Y-34399142D01*
X53839857Y-34006285D02*
X53411285Y-34006285D01*
X53625571Y-34756285D02*
X53625571Y-34006285D01*
X52625571Y-34720571D02*
X52518428Y-34756285D01*
X52339857Y-34756285D01*
X52268428Y-34720571D01*
X52232714Y-34684857D01*
X52197000Y-34613428D01*
X52197000Y-34542000D01*
X52232714Y-34470571D01*
X52268428Y-34434857D01*
X52339857Y-34399142D01*
X52482714Y-34363428D01*
X52554142Y-34327714D01*
X52589857Y-34292000D01*
X52625571Y-34220571D01*
X52625571Y-34149142D01*
X52589857Y-34077714D01*
X52554142Y-34042000D01*
X52482714Y-34006285D01*
X52304142Y-34006285D01*
X52197000Y-34042000D01*
X51768428Y-34756285D02*
X51839857Y-34720571D01*
X51875571Y-34684857D01*
X51911285Y-34613428D01*
X51911285Y-34399142D01*
X51875571Y-34327714D01*
X51839857Y-34292000D01*
X51768428Y-34256285D01*
X51661285Y-34256285D01*
X51589857Y-34292000D01*
X51554142Y-34327714D01*
X51518428Y-34399142D01*
X51518428Y-34613428D01*
X51554142Y-34684857D01*
X51589857Y-34720571D01*
X51661285Y-34756285D01*
X51768428Y-34756285D01*
X50875571Y-34720571D02*
X50947000Y-34756285D01*
X51089857Y-34756285D01*
X51161285Y-34720571D01*
X51197000Y-34684857D01*
X51232714Y-34613428D01*
X51232714Y-34399142D01*
X51197000Y-34327714D01*
X51161285Y-34292000D01*
X51089857Y-34256285D01*
X50947000Y-34256285D01*
X50875571Y-34292000D01*
X50554142Y-34756285D02*
X50554142Y-34006285D01*
X50482714Y-34470571D02*
X50268428Y-34756285D01*
X50268428Y-34256285D02*
X50554142Y-34542000D01*
X49661285Y-34720571D02*
X49732714Y-34756285D01*
X49875571Y-34756285D01*
X49947000Y-34720571D01*
X49982714Y-34649142D01*
X49982714Y-34363428D01*
X49947000Y-34292000D01*
X49875571Y-34256285D01*
X49732714Y-34256285D01*
X49661285Y-34292000D01*
X49625571Y-34363428D01*
X49625571Y-34434857D01*
X49982714Y-34506285D01*
X49411285Y-34256285D02*
X49125571Y-34256285D01*
X49304142Y-34006285D02*
X49304142Y-34649142D01*
X49268428Y-34720571D01*
X49197000Y-34756285D01*
X49125571Y-34756285D01*
X48089857Y-35042000D02*
X48125571Y-35006285D01*
X48197000Y-34899142D01*
X48232714Y-34827714D01*
X48268428Y-34720571D01*
X48304142Y-34542000D01*
X48304142Y-34399142D01*
X48268428Y-34220571D01*
X48232714Y-34113428D01*
X48197000Y-34042000D01*
X48125571Y-33934857D01*
X48089857Y-33899142D01*
X47804142Y-34006285D02*
X47804142Y-34613428D01*
X47768428Y-34684857D01*
X47732714Y-34720571D01*
X47661285Y-34756285D01*
X47518428Y-34756285D01*
X47447000Y-34720571D01*
X47411285Y-34684857D01*
X47375571Y-34613428D01*
X47375571Y-34006285D01*
X46697000Y-34006285D02*
X46839857Y-34006285D01*
X46911285Y-34042000D01*
X46947000Y-34077714D01*
X47018428Y-34184857D01*
X47054142Y-34327714D01*
X47054142Y-34613428D01*
X47018428Y-34684857D01*
X46982714Y-34720571D01*
X46911285Y-34756285D01*
X46768428Y-34756285D01*
X46697000Y-34720571D01*
X46661285Y-34684857D01*
X46625571Y-34613428D01*
X46625571Y-34434857D01*
X46661285Y-34363428D01*
X46697000Y-34327714D01*
X46768428Y-34292000D01*
X46911285Y-34292000D01*
X46982714Y-34327714D01*
X47018428Y-34363428D01*
X47054142Y-34434857D01*
X45982714Y-34256285D02*
X45982714Y-34756285D01*
X46161285Y-33970571D02*
X46339857Y-34506285D01*
X45875571Y-34506285D01*
X45661285Y-35042000D02*
X45625571Y-35006285D01*
X45554142Y-34899142D01*
X45518428Y-34827714D01*
X45482714Y-34720571D01*
X45447000Y-34542000D01*
X45447000Y-34399142D01*
X45482714Y-34220571D01*
X45518428Y-34113428D01*
X45554142Y-34042000D01*
X45625571Y-33934857D01*
X45661285Y-33899142D01*
M02*
